# This file uses centimeters as units for non-parametric coordinates.

mtllib grass1.mtl
g default
v -0.011069 -0.134689 0.284123
v -0.238449 -0.095934 0.045695
v -0.022797 0.162167 0.355437
v -0.261879 0.202917 0.104739
v -0.112278 0.430850 0.472568
v -0.339658 0.469605 0.234140
v -0.270753 0.645057 0.624050
v -0.464174 0.678024 0.421232
v -0.482709 0.783820 0.795056
v -0.623237 0.807772 0.647700
v -0.727399 0.833557 0.968846
v -0.801279 0.846150 0.891376
v -0.980870 0.789400 1.128408
v 0.100365 -0.083791 0.186124
v -0.127014 -0.045036 -0.052303
v -0.154399 0.252009 0.010219
v 0.084683 0.211259 0.260917
v -0.228223 0.520503 0.136142
v -0.000843 0.481748 0.374570
v -0.341261 0.734165 0.313140
v -0.147840 0.701197 0.515958
v -0.482447 0.872079 0.523886
v -0.341919 0.848127 0.671242
v -0.637961 0.920745 0.747752
v -0.564081 0.908153 0.825221
v -0.792581 0.875401 0.962823
vt 0.600000 0.400000
vt 0.700000 0.400000
vt 0.600000 0.500000
vt 0.700000 0.500000
vt 0.600000 0.600000
vt 0.700000 0.600000
vt 0.600000 0.700000
vt 0.700000 0.700000
vt 0.600000 0.800000
vt 0.700000 0.800000
vt 0.600000 0.900000
vt 0.700000 0.900000
vt 0.650000 1.000000
vt 0.600000 0.400000
vt 0.700000 0.400000
vt 0.700000 0.500000
vt 0.600000 0.500000
vt 0.700000 0.600000
vt 0.600000 0.600000
vt 0.700000 0.700000
vt 0.600000 0.700000
vt 0.700000 0.800000
vt 0.600000 0.800000
vt 0.700000 0.900000
vt 0.600000 0.900000
vt 0.650000 1.000000
vt 0.600000 0.400000
vt 0.700000 0.400000
vt 0.700000 0.500000
vt 0.600000 0.500000
vt 0.700000 0.600000
vt 0.600000 0.600000
vt 0.700000 0.700000
vt 0.600000 0.700000
vt 0.700000 0.800000
vt 0.600000 0.800000
vt 0.700000 0.900000
vt 0.600000 0.900000
vt 0.650000 1.000000
vn 0.724713 0.205259 -0.657769
vn 0.724713 0.205259 -0.657769
vn 0.724713 0.205259 -0.657769
vn 0.724713 0.205259 -0.657769
vn 0.679839 0.456217 -0.574182
vn 0.679839 0.456217 -0.574182
vn 0.679839 0.456217 -0.574182
vn 0.679839 0.456217 -0.574182
vn 0.583586 0.678434 -0.446268
vn 0.583586 0.678434 -0.446267
vn 0.583586 0.678434 -0.446268
vn 0.583586 0.678434 -0.446267
vn 0.432444 0.859431 -0.272709
vn 0.432444 0.859431 -0.272709
vn 0.432444 0.859431 -0.272709
vn 0.432444 0.859431 -0.272709
vn 0.224259 0.972935 -0.055720
vn 0.224259 0.972935 -0.055720
vn 0.224259 0.972935 -0.055720
vn 0.224259 0.972935 -0.055720
vn 0.046295 0.951735 0.303409
vn -0.143718 0.984122 0.104164
vn -0.151184 0.942703 0.297412
vn -0.725873 -0.187647 0.661738
vn -0.725873 -0.187647 0.661738
vn -0.725873 -0.187647 0.661738
vn -0.725873 -0.187647 0.661738
vn -0.675038 -0.472010 0.567036
vn -0.675038 -0.472010 0.567036
vn -0.675038 -0.472010 0.567036
vn -0.675038 -0.472010 0.567036
vn -0.561865 -0.712685 0.419986
vn -0.561865 -0.712685 0.419986
vn -0.561865 -0.712685 0.419986
vn -0.561865 -0.712685 0.419986
vn -0.394811 -0.888984 0.232016
vn -0.394811 -0.888984 0.232016
vn -0.394811 -0.888984 0.232016
vn -0.394811 -0.888984 0.232016
vn -0.186641 -0.982257 0.018330
vn -0.186641 -0.982257 0.018330
vn -0.186641 -0.982257 0.018330
vn -0.186641 -0.982257 0.018330
vn 0.043959 -0.978606 -0.200991
vn 0.043959 -0.978606 -0.200991
vn 0.043959 -0.978606 -0.200991
vn -0.680621 0.090285 -0.727051
vn -0.685442 0.116977 -0.718669
vn -0.685385 0.116642 -0.718778
vn -0.680621 0.090285 -0.727051
vn 0.685390 -0.116673 0.718768
vn 0.689665 -0.143273 0.709814
vn 0.689665 -0.143273 0.709814
vn 0.685447 -0.117009 0.718659
vn -0.694331 0.177201 -0.697498
vn -0.692919 0.166229 -0.701592
vn 0.673639 -0.055961 0.736939
vn 0.676000 -0.067095 0.733841
vn -0.701486 0.253015 -0.666258
vn -0.699255 0.223582 -0.679009
vn 0.654569 0.021884 0.755685
vn 0.662553 -0.008530 0.748967
vn -0.702548 0.381531 -0.600717
vn -0.703620 0.302733 -0.642862
vn 0.610512 0.157727 0.776142
vn 0.639352 0.073831 0.765362
vn -0.699866 0.420273 -0.577545
vn -0.699866 0.420273 -0.577545
vn 0.594049 0.199732 0.779238
vn 0.594049 0.199732 0.779238
vn -0.574993 0.779326 -0.249067
vn -0.574993 0.779326 -0.249067
vn 0.335464 0.624145 0.705625
vn 0.335464 0.624145 0.705626
s off
g pSphere3
usemtl initialShadingGroup
f 14/27/1 15/28/2 16/29/3 17/30/4
f 17/30/5 16/29/6 18/31/7 19/32/8
f 19/32/9 18/31/10 20/33/11 21/34/12
f 21/34/13 20/33/14 22/35/15 23/36/16
f 23/36/17 22/35/18 24/37/19 25/38/20
s 1
f 25/38/21 24/37/22 26/39/23
s off
f 1/14/24 3/17/25 4/16/26 2/15/27
f 3/17/28 5/19/29 6/18/30 4/16/31
f 5/19/32 7/21/33 8/20/34 6/18/35
f 7/21/36 9/23/37 10/22/38 8/20/39
f 9/23/40 11/25/41 12/24/42 10/22/43
f 11/25/44 13/26/45 12/24/46
s 2
f 2/2/47 4/4/48 16/29/49 15/28/50
s 3
f 3/3/51 1/1/52 14/27/53 17/30/54
s 2
f 4/4/48 6/6/55 18/31/56 16/29/49
s 3
f 5/5/57 3/3/51 17/30/54 19/32/58
s 2
f 6/6/55 8/8/59 20/33/60 18/31/56
s 3
f 7/7/61 5/5/57 19/32/58 21/34/62
s 2
f 8/8/59 10/10/63 22/35/64 20/33/60
s 3
f 9/9/65 7/7/61 21/34/62 23/36/66
s 2
f 10/10/63 12/12/67 24/37/68 22/35/64
s 3
f 11/11/69 9/9/65 23/36/66 25/38/70
s 1
f 12/12/71 13/13/72 26/39/23 24/37/22
f 13/13/73 11/11/74 25/38/21 26/39/23
g default
v 0.235505 -0.041045 -0.007359
v 0.186180 -0.065493 0.319781
v 0.237577 0.167826 -0.000094
v 0.185715 0.142120 0.343882
v 0.308957 0.367009 0.034210
v 0.259632 0.342561 0.361350
v 0.442656 0.537006 0.092193
v 0.400698 0.516210 0.370475
v 0.625588 0.661177 0.168181
v 0.595104 0.646068 0.370364
v 0.839845 0.727367 0.254734
v 0.823819 0.719424 0.361028
v 1.064455 0.729097 0.343381
v 0.114295 -0.026823 -0.024572
v 0.064971 -0.051270 0.302568
v 0.068807 0.155838 0.327280
v 0.120670 0.181544 -0.016695
v 0.138423 0.356784 0.344138
v 0.187747 0.381232 0.016997
v 0.267004 0.531897 0.351490
v 0.308962 0.552694 0.073208
v 0.441964 0.664037 0.348618
v 0.472448 0.679146 0.146434
v 0.646176 0.740268 0.335802
v 0.662202 0.748211 0.229508
v 0.859651 0.753128 0.314298
vt 0.600000 0.400000
vt 0.700000 0.400000
vt 0.600000 0.500000
vt 0.700000 0.500000
vt 0.600000 0.600000
vt 0.700000 0.600000
vt 0.600000 0.700000
vt 0.700000 0.700000
vt 0.600000 0.800000
vt 0.700000 0.800000
vt 0.600000 0.900000
vt 0.700000 0.900000
vt 0.650000 1.000000
vt 0.600000 0.400000
vt 0.700000 0.400000
vt 0.700000 0.500000
vt 0.600000 0.500000
vt 0.700000 0.600000
vt 0.600000 0.600000
vt 0.700000 0.700000
vt 0.600000 0.700000
vt 0.700000 0.800000
vt 0.600000 0.800000
vt 0.700000 0.900000
vt 0.600000 0.900000
vt 0.650000 1.000000
vt 0.600000 0.400000
vt 0.700000 0.400000
vt 0.700000 0.500000
vt 0.600000 0.500000
vt 0.700000 0.600000
vt 0.600000 0.600000
vt 0.700000 0.700000
vt 0.600000 0.700000
vt 0.700000 0.800000
vt 0.600000 0.800000
vt 0.700000 0.900000
vt 0.600000 0.900000
vt 0.650000 1.000000
vn -0.988581 0.035777 -0.146379
vn -0.988581 0.035777 -0.146379
vn -0.988581 0.035777 -0.146379
vn -0.988581 0.035777 -0.146379
vn -0.935460 0.333821 -0.116096
vn -0.935460 0.333821 -0.116096
vn -0.935460 0.333821 -0.116096
vn -0.935460 0.333821 -0.116096
vn -0.802132 0.592203 -0.076684
vn -0.802132 0.592203 -0.076684
vn -0.802132 0.592203 -0.076684
vn -0.802132 0.592203 -0.076684
vn -0.602713 0.797344 -0.031287
vn -0.602713 0.797344 -0.031287
vn -0.602713 0.797344 -0.031287
vn -0.602713 0.797344 -0.031287
vn -0.348706 0.937070 0.017452
vn -0.348706 0.937070 0.017452
vn -0.348706 0.937070 0.017452
vn -0.348706 0.937070 0.017452
vn -0.010062 0.999353 -0.034521
vn -0.041641 0.983701 0.174923
vn 0.089938 0.992078 0.087701
vn 0.988877 -0.014960 0.147979
vn 0.988877 -0.014960 0.147979
vn 0.988877 -0.014960 0.147979
vn 0.988877 -0.014960 0.147979
vn 0.928892 -0.352463 0.113713
vn 0.928891 -0.352463 0.113713
vn 0.928891 -0.352463 0.113713
vn 0.928891 -0.352463 0.113713
vn 0.772514 -0.631205 0.069304
vn 0.772514 -0.631205 0.069304
vn 0.772514 -0.631205 0.069304
vn 0.772514 -0.631205 0.069304
vn 0.555332 -0.831348 0.021602
vn 0.555332 -0.831348 0.021602
vn 0.555332 -0.831348 0.021602
vn 0.555332 -0.831348 0.021602
vn 0.304374 -0.952218 -0.025270
vn 0.304374 -0.952218 -0.025270
vn 0.304374 -0.952217 -0.025270
vn 0.304374 -0.952218 -0.025270
vn 0.035001 -0.996987 -0.069230
vn 0.035001 -0.996987 -0.069230
vn 0.035001 -0.996987 -0.069230
vn -0.152807 -0.114296 0.981624
vn -0.148508 -0.072013 0.986286
vn -0.148901 -0.075778 0.985944
vn -0.152807 -0.114296 0.981624
vn 0.148859 0.075378 -0.985981
vn 0.144310 0.032971 -0.988983
vn 0.144310 0.032971 -0.988983
vn 0.148466 0.071613 -0.986321
vn -0.138050 0.021828 0.990185
vn -0.140635 -0.000345 0.990062
vn 0.157941 0.168537 -0.972959
vn 0.155921 0.146643 -0.976824
vn -0.123093 0.139972 0.982475
vn -0.129985 0.087494 0.987648
vn 0.167387 0.283949 -0.944116
vn 0.163467 0.232944 -0.958653
vn -0.094046 0.333676 0.937985
vn -0.113459 0.208655 0.971386
vn 0.177859 0.468446 -0.865404
vn 0.171839 0.350064 -0.920830
vn -0.085543 0.383736 0.919472
vn -0.085543 0.383736 0.919472
vn 0.179460 0.515085 -0.838142
vn 0.179460 0.515085 -0.838142
vn 0.010856 0.807035 0.590403
vn 0.010856 0.807036 0.590403
vn 0.165823 0.883847 -0.437399
vn 0.165822 0.883847 -0.437399
s off
g pSphere2
usemtl initialShadingGroup
f 40/66/75 41/67/76 42/68/77 43/69/78
f 43/69/79 42/68/80 44/70/81 45/71/82
f 45/71/83 44/70/84 46/72/85 47/73/86
f 47/73/87 46/72/88 48/74/89 49/75/90
f 49/75/91 48/74/92 50/76/93 51/77/94
s 1
f 51/77/95 50/76/96 52/78/97
s off
f 27/53/98 29/56/99 30/55/100 28/54/101
f 29/56/102 31/58/103 32/57/104 30/55/105
f 31/58/106 33/60/107 34/59/108 32/57/109
f 33/60/110 35/62/111 36/61/112 34/59/113
f 35/62/114 37/64/115 38/63/116 36/61/117
f 37/64/118 39/65/119 38/63/120
s 2
f 28/41/121 30/43/122 42/68/123 41/67/124
s 3
f 29/42/125 27/40/126 40/66/127 43/69/128
s 2
f 30/43/122 32/45/129 44/70/130 42/68/123
s 3
f 31/44/131 29/42/125 43/69/128 45/71/132
s 2
f 32/45/129 34/47/133 46/72/134 44/70/130
s 3
f 33/46/135 31/44/131 45/71/132 47/73/136
s 2
f 34/47/133 36/49/137 48/74/138 46/72/134
s 3
f 35/48/139 33/46/135 47/73/136 49/75/140
s 2
f 36/49/137 38/51/141 50/76/142 48/74/138
s 3
f 37/50/143 35/48/139 49/75/140 51/77/144
s 1
f 38/51/145 39/52/146 52/78/97 50/76/96
f 39/52/147 37/50/148 51/77/95 52/78/97
g default
v -0.165870 -0.063428 -0.204697
v 0.165870 -0.063428 -0.204697
v -0.174406 0.240954 -0.179679
v 0.174406 0.240954 -0.179679
v -0.165870 0.539696 -0.247480
v 0.165870 0.539696 -0.247480
v -0.141097 0.803555 -0.401462
v 0.141097 0.803555 -0.401462
v -0.102513 1.006703 -0.626553
v 0.102513 1.006703 -0.626553
v -0.053894 1.129254 -0.900719
v 0.053894 1.129254 -0.900719
v 0.000000 1.159212 -1.197124
v -0.165870 -0.053913 -0.048104
v 0.165870 -0.053913 -0.048104
v 0.174406 0.250131 -0.028644
v -0.174406 0.250131 -0.028644
v 0.165870 0.549211 -0.090886
v -0.165870 0.549211 -0.090886
v 0.141097 0.814050 -0.228739
v -0.141097 0.814050 -0.228739
v 0.102513 1.018724 -0.428708
v -0.102513 1.018724 -0.428708
v 0.053894 1.143199 -0.671219
v -0.053894 1.143199 -0.671219
v 0.000000 1.175289 -0.932532
vt 0.600000 0.400000
vt 0.700000 0.400000
vt 0.600000 0.500000
vt 0.700000 0.500000
vt 0.600000 0.600000
vt 0.700000 0.600000
vt 0.600000 0.700000
vt 0.700000 0.700000
vt 0.600000 0.800000
vt 0.700000 0.800000
vt 0.600000 0.900000
vt 0.700000 0.900000
vt 0.650000 1.000000
vt 0.600000 0.400000
vt 0.700000 0.400000
vt 0.700000 0.500000
vt 0.600000 0.500000
vt 0.700000 0.600000
vt 0.600000 0.600000
vt 0.700000 0.700000
vt 0.600000 0.700000
vt 0.700000 0.800000
vt 0.600000 0.800000
vt 0.700000 0.900000
vt 0.600000 0.900000
vt 0.650000 1.000000
vt 0.600000 0.400000
vt 0.700000 0.400000
vt 0.700000 0.500000
vt 0.600000 0.500000
vt 0.700000 0.600000
vt 0.600000 0.600000
vt 0.700000 0.700000
vt 0.600000 0.700000
vt 0.700000 0.800000
vt 0.600000 0.800000
vt 0.700000 0.900000
vt 0.600000 0.900000
vt 0.650000 1.000000
vn 0.000000 -0.063874 0.997958
vn 0.000000 -0.063874 0.997958
vn 0.000000 -0.063874 0.997958
vn 0.000000 -0.063874 0.997958
vn 0.000000 0.203749 0.979023
vn 0.000000 0.203749 0.979023
vn 0.000000 0.203749 0.979023
vn 0.000000 0.203749 0.979023
vn 0.000000 0.461712 0.887030
vn 0.000000 0.461712 0.887030
vn 0.000000 0.461712 0.887030
vn 0.000000 0.461712 0.887030
vn 0.000000 0.698837 0.715281
vn 0.000000 0.698837 0.715281
vn 0.000000 0.698837 0.715281
vn 0.000000 0.698837 0.715281
vn 0.000000 0.889653 0.456637
vn 0.000000 0.889653 0.456637
vn 0.000000 0.889653 0.456637
vn 0.000000 0.889653 0.456637
vn -0.138611 0.986018 0.092498
vn 0.138611 0.986018 0.092499
vn 0.000000 0.998848 -0.047994
vn -0.000000 0.081916 -0.996639
vn -0.000000 0.081916 -0.996639
vn -0.000000 0.081916 -0.996639
vn -0.000000 0.081916 -0.996639
vn -0.000000 -0.221325 -0.975200
vn -0.000000 -0.221325 -0.975200
vn -0.000000 -0.221325 -0.975200
vn -0.000000 -0.221325 -0.975200
vn -0.000000 -0.504028 -0.863687
vn -0.000000 -0.504028 -0.863687
vn -0.000000 -0.504028 -0.863687
vn -0.000000 -0.504028 -0.863687
vn -0.000000 -0.742365 -0.669995
vn -0.000000 -0.742365 -0.669995
vn -0.000000 -0.742365 -0.669995
vn -0.000000 -0.742365 -0.669995
vn 0.000000 -0.912946 -0.408082
vn 0.000000 -0.912945 -0.408082
vn 0.000000 -0.912946 -0.408082
vn 0.000000 -0.912946 -0.408082
vn 0.000000 -0.994931 -0.100558
vn 0.000000 -0.994931 -0.100558
vn 0.000000 -0.994931 -0.100558
vn 0.999602 -0.028173 0.001712
vn 1.000000 0.000162 -0.000010
vn 1.000000 -0.000195 0.000012
vn 0.999602 -0.028173 0.001712
vn -1.000000 0.000162 -0.000010
vn -0.999602 -0.028173 0.001712
vn -0.999602 -0.028173 0.001712
vn -1.000000 -0.000195 0.000012
vn 0.997912 0.064462 -0.003917
vn 0.998605 0.052708 -0.003203
vn -0.997913 0.064462 -0.003917
vn -0.998605 0.052708 -0.003203
vn 0.989221 0.146161 -0.008881
vn 0.993417 0.114341 -0.006948
vn -0.989221 0.146161 -0.008881
vn -0.993417 0.114341 -0.006948
vn 0.957857 0.286719 -0.017422
vn 0.979676 0.200215 -0.012166
vn -0.957857 0.286719 -0.017422
vn -0.979676 0.200215 -0.012166
vn 0.943890 0.329651 -0.020031
vn 0.943890 0.329651 -0.020031
vn -0.943890 0.329651 -0.020031
vn -0.943890 0.329651 -0.020031
vn 0.664163 0.746212 -0.045343
vn 0.664163 0.746212 -0.045343
vn -0.664163 0.746212 -0.045343
vn -0.664163 0.746212 -0.045343
s off
g pSphere1
usemtl initialShadingGroup
f 66/105/149 67/106/150 68/107/151 69/108/152
f 69/108/153 68/107/154 70/109/155 71/110/156
f 71/110/157 70/109/158 72/111/159 73/112/160
f 73/112/161 72/111/162 74/113/163 75/114/164
f 75/114/165 74/113/166 76/115/167 77/116/168
s 1
f 77/116/169 76/115/170 78/117/171
s off
f 53/92/172 55/95/173 56/94/174 54/93/175
f 55/95/176 57/97/177 58/96/178 56/94/179
f 57/97/180 59/99/181 60/98/182 58/96/183
f 59/99/184 61/101/185 62/100/186 60/98/187
f 61/101/188 63/103/189 64/102/190 62/100/191
f 63/103/192 65/104/193 64/102/194
s 2
f 54/80/195 56/82/196 68/107/197 67/106/198
s 3
f 55/81/199 53/79/200 66/105/201 69/108/202
s 2
f 56/82/196 58/84/203 70/109/204 68/107/197
s 3
f 57/83/205 55/81/199 69/108/202 71/110/206
s 2
f 58/84/203 60/86/207 72/111/208 70/109/204
s 3
f 59/85/209 57/83/205 71/110/206 73/112/210
s 2
f 60/86/207 62/88/211 74/113/212 72/111/208
s 3
f 61/87/213 59/85/209 73/112/210 75/114/214
s 2
f 62/88/211 64/90/215 76/115/216 74/113/212
s 3
f 63/89/217 61/87/213 75/114/214 77/116/218
s 1
f 64/90/219 65/91/220 78/117/171 76/115/170
f 65/91/221 63/89/222 77/116/169 78/117/171
