#
#
#

mtllib Muzzle.mtl


#
# pCylinder1 Mesh Mesh
#
g pCylinder1 Mesh Mesh


#
# pCylinder1 Mesh Mesh_pCylinder1 Mesh_initialShadingGroup
#
usemtl pCylinder1 Mesh Mesh_pCylinder1 Mesh_initialShadingGroup

v -0.971079 0.106010 -0.251579
v -0.969568 0.189741 -0.212634
v 0.950606 0.163628 -0.230982
v 0.949095 0.079897 -0.269928
v -0.968084 0.256190 -0.151966
v 0.952089 0.230077 -0.170314
v -0.966774 0.298852 -0.075516
v 0.953401 0.272739 -0.093865
v -0.965764 0.313552 0.009233
v 0.954410 0.287438 -0.009115
v -0.965154 0.298850 0.093986
v 0.955020 0.272737 0.075637
v -0.965004 0.256186 0.170445
v 0.955170 0.230072 0.152097
v -0.965328 0.189735 0.231128
v 0.954847 0.163621 0.212780
v -0.966094 0.106002 0.270093
v 0.954080 0.079889 0.251745
v -0.967228 0.013185 0.283527
v 0.952946 -0.012928 0.265179
v -0.968618 -0.079632 0.270114
v 0.951556 -0.105745 0.251766
v -0.970129 -0.163362 0.231169
v 0.950045 -0.189475 0.212820
v -0.971612 -0.229812 0.170501
v 0.948562 -0.255924 0.152153
v -0.972924 -0.272473 0.094051
v 0.947251 -0.298587 0.075703
v -0.973934 -0.287173 0.009302
v 0.946241 -0.313286 -0.009046
v -0.974543 -0.272471 -0.075451
v 0.945631 -0.298585 -0.093799
v -0.974693 -0.229807 -0.151910
v 0.945481 -0.255919 -0.170259
v -0.974370 -0.163356 -0.212593
v 0.945805 -0.189469 -0.230941
v -0.973603 -0.079624 -0.251558
v 0.946571 -0.105737 -0.269906
v -0.972469 0.013193 -0.264992
v 0.947705 -0.012920 -0.283340
v -0.969849 0.013189 0.009267
v 0.950326 -0.012924 -0.009081
vn -0.004885 0.309001 -0.951049
vn 0.000262 0.587743 -0.809047
vn 0.005384 0.808951 -0.587851
vn 0.009979 0.950973 -0.309112
vn 0.013597 0.999908 -0.000115
vn 0.015884 0.950964 0.308894
vn 0.016617 0.808933 0.587666
vn 0.015722 0.587719 0.808913
vn 0.013289 0.308973 0.950978
vn 0.009555 -0.000015 0.999954
vn 0.004885 -0.309002 0.951049
vn -0.000262 -0.587743 0.809047
vn -0.005384 -0.808951 0.587851
vn -0.009979 -0.950973 0.309112
vn -0.013597 -0.999908 0.000115
vn -0.015884 -0.950964 -0.308894
vn -0.016617 -0.808933 -0.587666
vn -0.015722 -0.587719 -0.808913
vn -0.013289 -0.308973 -0.950978
vn -0.009555 0.000014 -0.999954
vn -0.999862 0.013598 0.009554
vn 0.999862 -0.013598 -0.009554
vt 0.375000 0.312500
vt 0.387500 0.312500
vt 0.387500 0.688440
vt 0.375000 0.688440
vt 0.400000 0.312500
vt 0.400000 0.688440
vt 0.412500 0.312500
vt 0.412500 0.688440
vt 0.425000 0.312500
vt 0.425000 0.688440
vt 0.437500 0.312500
vt 0.437500 0.688440
vt 0.450000 0.312500
vt 0.450000 0.688440
vt 0.462500 0.312500
vt 0.462500 0.688440
vt 0.475000 0.312500
vt 0.475000 0.688440
vt 0.487500 0.312500
vt 0.487500 0.688440
vt 0.500000 0.312500
vt 0.500000 0.688440
vt 0.512500 0.312500
vt 0.512500 0.688440
vt 0.525000 0.312500
vt 0.525000 0.688440
vt 0.537500 0.312500
vt 0.537500 0.688440
vt 0.550000 0.312500
vt 0.550000 0.688440
vt 0.562500 0.312500
vt 0.562500 0.688440
vt 0.575000 0.312500
vt 0.575000 0.688440
vt 0.587500 0.312500
vt 0.587500 0.688440
vt 0.600000 0.312500
vt 0.600000 0.688440
vt 0.612500 0.312500
vt 0.612500 0.688440
vt 0.625000 0.312500
vt 0.625000 0.688440
vt 0.626409 0.064408
vt 0.648603 0.107966
vt 0.500000 0.150000
vt 0.591842 0.029841
vt 0.548284 0.007647
vt 0.500000 -0.000000
vt 0.451716 0.007647
vt 0.408159 0.029841
vt 0.373591 0.064409
vt 0.351397 0.107966
vt 0.343750 0.156250
vt 0.351397 0.204534
vt 0.373591 0.248091
vt 0.408159 0.282659
vt 0.451716 0.304853
vt 0.548284 0.304853
vt 0.591841 0.282659
vt 0.626409 0.248091
vt 0.648603 0.204534
vt 0.656250 0.156250
vt 0.648603 0.892034
vt 0.626409 0.935591
vt 0.500000 0.837500
vt 0.591841 0.970159
vt 0.548284 0.992353
vt 0.500000 1.000000
vt 0.451716 0.992353
vt 0.408159 0.970159
vt 0.373591 0.935591
vt 0.351397 0.892034
vt 0.343750 0.843750
vt 0.351397 0.795466
vt 0.373591 0.751909
vt 0.408159 0.717341
vt 0.451716 0.695147
vt 0.500000 0.687500
vt 0.548284 0.695147
vt 0.591842 0.717341
vt 0.626409 0.751908
vt 0.648603 0.795466
vt 0.656250 0.843750
f 1/1/1 2/2/2 3/3/2 4/4/1
f 2/2/2 5/5/3 6/6/3 3/3/2
f 5/5/3 7/7/4 8/8/4 6/6/3
f 7/7/4 9/9/5 10/10/5 8/8/4
f 9/9/5 11/11/6 12/12/6 10/10/5
f 11/11/6 13/13/7 14/14/7 12/12/6
f 13/13/7 15/15/8 16/16/8 14/14/7
f 15/15/8 17/17/9 18/18/9 16/16/8
f 17/17/9 19/19/10 20/20/10 18/18/9
f 19/19/10 21/21/11 22/22/11 20/20/10
f 21/21/11 23/23/12 24/24/12 22/22/11
f 23/23/12 25/25/13 26/26/13 24/24/12
f 25/25/13 27/27/14 28/28/14 26/26/13
f 27/27/14 29/29/15 30/30/15 28/28/14
f 29/29/15 31/31/16 32/32/16 30/30/15
f 31/31/16 33/33/17 34/34/17 32/32/16
f 33/33/17 35/35/18 36/36/18 34/34/17
f 35/35/18 37/37/19 38/38/19 36/36/18
f 37/37/19 39/39/20 40/40/20 38/38/19
f 39/39/20 1/41/1 4/42/1 40/40/20
f 2/43/21 1/44/21 41/45/21
f 5/46/21 2/43/21 41/45/21
f 7/47/21 5/46/21 41/45/21
f 9/48/21 7/47/21 41/45/21
f 11/49/21 9/48/21 41/45/21
f 13/50/21 11/49/21 41/45/21
f 15/51/21 13/50/21 41/45/21
f 17/52/21 15/51/21 41/45/21
f 19/53/21 17/52/21 41/45/21
f 21/54/21 19/53/21 41/45/21
f 23/55/21 21/54/21 41/45/21
f 25/56/21 23/55/21 41/45/21
f 27/57/21 25/56/21 41/45/21
f 29/21/21 27/57/21 41/45/21
f 31/58/21 29/21/21 41/45/21
f 33/59/21 31/58/21 41/45/21
f 35/60/21 33/59/21 41/45/21
f 37/61/21 35/60/21 41/45/21
f 39/62/21 37/61/21 41/45/21
f 1/44/21 39/62/21 41/45/21
f 4/63/22 3/64/22 42/65/22
f 3/64/22 6/66/22 42/65/22
f 6/66/22 8/67/22 42/65/22
f 8/67/22 10/68/22 42/65/22
f 10/68/22 12/69/22 42/65/22
f 12/69/22 14/70/22 42/65/22
f 14/70/22 16/71/22 42/65/22
f 16/71/22 18/72/22 42/65/22
f 18/72/22 20/73/22 42/65/22
f 20/73/22 22/74/22 42/65/22
f 22/74/22 24/75/22 42/65/22
f 24/75/22 26/76/22 42/65/22
f 26/76/22 28/77/22 42/65/22
f 28/77/22 30/78/22 42/65/22
f 30/78/22 32/79/22 42/65/22
f 32/79/22 34/80/22 42/65/22
f 34/80/22 36/81/22 42/65/22
f 36/81/22 38/82/22 42/65/22
f 38/82/22 40/83/22 42/65/22
f 40/83/22 4/63/22 42/65/22
