# This file uses centimeters as units for non-parametric coordinates.

mtllib player.mtl
g default
v -0.500000 0.000000 0.500000
v 0.500000 0.000000 0.500000
v -0.500000 1.000000 0.500000
v 0.500000 1.000000 0.500000
v -0.500000 1.000000 -0.500000
v 0.500000 1.000000 -0.500000
v -0.500000 0.000000 -0.500000
v 0.500000 0.000000 -0.500000
v 0.321156 1.339479 -0.104350
v 0.273191 1.339479 -0.198485
v 0.198485 1.339479 -0.273191
v 0.104350 1.339479 -0.321156
v 0.000000 1.339479 -0.337683
v -0.104350 1.339479 -0.321156
v -0.198485 1.339479 -0.273191
v -0.273191 1.339479 -0.198485
v -0.321156 1.339479 -0.104350
v -0.337683 1.339479 0.000000
v -0.321156 1.339479 0.104350
v -0.273191 1.339479 0.198485
v -0.198485 1.339479 0.273191
v -0.104350 1.339479 0.321155
v -0.000000 1.339479 0.337683
v 0.104350 1.339479 0.321155
v 0.198485 1.339479 0.273191
v 0.273191 1.339479 0.198485
v 0.321155 1.339479 0.104350
v 0.337683 1.339479 0.000000
v 0.454183 1.677162 -0.147573
v 0.386351 1.677162 -0.280700
v 0.280700 1.677162 -0.386351
v 0.147573 1.677162 -0.454183
v 0.000000 1.677162 -0.477556
v -0.147573 1.677162 -0.454183
v -0.280700 1.677162 -0.386351
v -0.386351 1.677162 -0.280700
v -0.454182 1.677162 -0.147573
v -0.477556 1.677162 0.000000
v -0.454182 1.677162 0.147573
v -0.386351 1.677162 0.280700
v -0.280700 1.677162 0.386351
v -0.147573 1.677162 0.454182
v -0.000000 1.677162 0.477556
v 0.147573 1.677162 0.454182
v 0.280700 1.677162 0.386351
v 0.386351 1.677162 0.280700
v 0.454182 1.677162 0.147573
v 0.477556 1.677162 0.000000
v 0.321156 2.014845 -0.104350
v 0.273191 2.014845 -0.198485
v 0.198485 2.014845 -0.273191
v 0.104350 2.014845 -0.321156
v 0.000000 2.014845 -0.337683
v -0.104350 2.014845 -0.321156
v -0.198485 2.014845 -0.273191
v -0.273191 2.014845 -0.198485
v -0.321156 2.014845 -0.104350
v -0.337683 2.014845 0.000000
v -0.321156 2.014845 0.104350
v -0.273191 2.014845 0.198485
v -0.198485 2.014845 0.273191
v -0.104350 2.014845 0.321155
v -0.000000 2.014845 0.337683
v 0.104350 2.014845 0.321155
v 0.198485 2.014845 0.273191
v 0.273191 2.014845 0.198485
v 0.321155 2.014845 0.104350
v 0.337683 2.014845 0.000000
v 0.000000 1.199606 0.000000
v 0.000000 2.154718 0.000000
vt 0.375000 0.000000
vt 0.625000 0.000000
vt 0.375000 0.250000
vt 0.625000 0.250000
vt 0.375000 0.500000
vt 0.625000 0.500000
vt 0.375000 0.750000
vt 0.625000 0.750000
vt 0.375000 1.000000
vt 0.625000 1.000000
vt 0.875000 0.000000
vt 0.875000 0.250000
vt 0.125000 0.000000
vt 0.125000 0.250000
vt 0.000000 0.250000
vt 0.050000 0.250000
vt 0.050000 0.500000
vt 0.000000 0.500000
vt 0.100000 0.250000
vt 0.100000 0.500000
vt 0.150000 0.250000
vt 0.150000 0.500000
vt 0.200000 0.250000
vt 0.200000 0.500000
vt 0.250000 0.250000
vt 0.250000 0.500000
vt 0.300000 0.250000
vt 0.300000 0.500000
vt 0.350000 0.250000
vt 0.350000 0.500000
vt 0.400000 0.250000
vt 0.400000 0.500000
vt 0.450000 0.250000
vt 0.450000 0.500000
vt 0.500000 0.250000
vt 0.500000 0.500000
vt 0.550000 0.250000
vt 0.550000 0.500000
vt 0.600000 0.250000
vt 0.600000 0.500000
vt 0.650000 0.250000
vt 0.650000 0.500000
vt 0.700000 0.250000
vt 0.700000 0.500000
vt 0.750000 0.250000
vt 0.750000 0.500000
vt 0.800000 0.250000
vt 0.800000 0.500000
vt 0.850000 0.250000
vt 0.850000 0.500000
vt 0.900000 0.250000
vt 0.900000 0.500000
vt 0.950000 0.250000
vt 0.950000 0.500000
vt 1.000000 0.250000
vt 1.000000 0.500000
vt 0.050000 0.750000
vt 0.000000 0.750000
vt 0.100000 0.750000
vt 0.150000 0.750000
vt 0.200000 0.750000
vt 0.250000 0.750000
vt 0.300000 0.750000
vt 0.350000 0.750000
vt 0.400000 0.750000
vt 0.450000 0.750000
vt 0.500000 0.750000
vt 0.550000 0.750000
vt 0.600000 0.750000
vt 0.650000 0.750000
vt 0.700000 0.750000
vt 0.750000 0.750000
vt 0.800000 0.750000
vt 0.850000 0.750000
vt 0.900000 0.750000
vt 0.950000 0.750000
vt 1.000000 0.750000
vt 0.025000 0.000000
vt 0.075000 0.000000
vt 0.125000 0.000000
vt 0.175000 0.000000
vt 0.225000 0.000000
vt 0.275000 0.000000
vt 0.325000 0.000000
vt 0.375000 0.000000
vt 0.425000 0.000000
vt 0.475000 0.000000
vt 0.525000 0.000000
vt 0.575000 0.000000
vt 0.625000 0.000000
vt 0.675000 0.000000
vt 0.725000 0.000000
vt 0.775000 0.000000
vt 0.825000 0.000000
vt 0.875000 0.000000
vt 0.925000 0.000000
vt 0.975000 0.000000
vt 0.025000 1.000000
vt 0.075000 1.000000
vt 0.125000 1.000000
vt 0.175000 1.000000
vt 0.225000 1.000000
vt 0.275000 1.000000
vt 0.325000 1.000000
vt 0.375000 1.000000
vt 0.425000 1.000000
vt 0.475000 1.000000
vt 0.525000 1.000000
vt 0.575000 1.000000
vt 0.625000 1.000000
vt 0.675000 1.000000
vt 0.725000 1.000000
vt 0.775000 1.000000
vt 0.825000 1.000000
vt 0.875000 1.000000
vt 0.925000 1.000000
vt 0.975000 1.000000
vn 0.000000 0.000000 1.000000
vn 0.000000 0.000000 1.000000
vn 0.000000 0.000000 1.000000
vn 0.000000 0.000000 1.000000
vn 0.000000 1.000000 0.000000
vn 0.000000 1.000000 0.000000
vn 0.000000 1.000000 0.000000
vn 0.000000 1.000000 0.000000
vn 0.000000 0.000000 -1.000000
vn 0.000000 0.000000 -1.000000
vn 0.000000 0.000000 -1.000000
vn 0.000000 0.000000 -1.000000
vn 0.000000 -1.000000 0.000000
vn 0.000000 -1.000000 0.000000
vn 0.000000 -1.000000 0.000000
vn 0.000000 -1.000000 0.000000
vn 1.000000 0.000000 0.000000
vn 1.000000 0.000000 0.000000
vn 1.000000 0.000000 0.000000
vn 1.000000 0.000000 0.000000
vn -1.000000 0.000000 0.000000
vn -1.000000 0.000000 0.000000
vn -1.000000 0.000000 0.000000
vn -1.000000 0.000000 0.000000
vn 0.878662 -0.382684 -0.285493
vn 0.747434 -0.382684 -0.543043
vn 0.747434 -0.382684 -0.543043
vn 0.878662 -0.382684 -0.285493
vn 0.543042 -0.382683 -0.747434
vn 0.543042 -0.382683 -0.747434
vn 0.285494 -0.382683 -0.878662
vn 0.285494 -0.382684 -0.878662
vn -0.000000 -0.382684 -0.923879
vn -0.000000 -0.382684 -0.923879
vn -0.285495 -0.382684 -0.878662
vn -0.285495 -0.382684 -0.878662
vn -0.543043 -0.382684 -0.747434
vn -0.543043 -0.382684 -0.747434
vn -0.747434 -0.382683 -0.543043
vn -0.747434 -0.382683 -0.543043
vn -0.878662 -0.382683 -0.285495
vn -0.878662 -0.382683 -0.285495
vn -0.923880 -0.382683 0.000000
vn -0.923880 -0.382683 0.000000
vn -0.878662 -0.382683 0.285495
vn -0.878662 -0.382683 0.285495
vn -0.747434 -0.382683 0.543043
vn -0.747434 -0.382683 0.543043
vn -0.543043 -0.382684 0.747434
vn -0.543043 -0.382683 0.747434
vn -0.285494 -0.382683 0.878662
vn -0.285494 -0.382684 0.878662
vn 0.000000 -0.382683 0.923880
vn -0.000000 -0.382683 0.923880
vn 0.285494 -0.382683 0.878662
vn 0.285494 -0.382683 0.878662
vn 0.543043 -0.382683 0.747434
vn 0.543043 -0.382683 0.747434
vn 0.747434 -0.382683 0.543043
vn 0.747434 -0.382683 0.543043
vn 0.878662 -0.382683 0.285494
vn 0.878662 -0.382683 0.285494
vn 0.923880 -0.382683 0.000001
vn 0.923880 -0.382683 0.000001
vn 0.878662 0.382684 -0.285493
vn 0.747434 0.382684 -0.543043
vn 0.747434 0.382684 -0.543043
vn 0.878662 0.382684 -0.285493
vn 0.543043 0.382684 -0.747434
vn 0.543043 0.382684 -0.747434
vn 0.285494 0.382683 -0.878662
vn 0.285494 0.382683 -0.878662
vn -0.000000 0.382683 -0.923880
vn -0.000000 0.382683 -0.923880
vn -0.285495 0.382683 -0.878662
vn -0.285495 0.382683 -0.878662
vn -0.543043 0.382683 -0.747434
vn -0.543043 0.382684 -0.747434
vn -0.747434 0.382683 -0.543043
vn -0.747434 0.382683 -0.543043
vn -0.878662 0.382683 -0.285494
vn -0.878662 0.382683 -0.285494
vn -0.923880 0.382683 0.000000
vn -0.923880 0.382683 0.000000
vn -0.878662 0.382683 0.285495
vn -0.878662 0.382683 0.285495
vn -0.747434 0.382683 0.543043
vn -0.747434 0.382683 0.543043
vn -0.543043 0.382683 0.747434
vn -0.543043 0.382683 0.747434
vn -0.285494 0.382683 0.878662
vn -0.285494 0.382683 0.878662
vn 0.000000 0.382683 0.923880
vn 0.000000 0.382683 0.923880
vn 0.285495 0.382683 0.878662
vn 0.285495 0.382683 0.878662
vn 0.543043 0.382683 0.747434
vn 0.543043 0.382683 0.747434
vn 0.747434 0.382683 0.543043
vn 0.747434 0.382683 0.543043
vn 0.878662 0.382683 0.285494
vn 0.878662 0.382683 0.285494
vn 0.923880 0.382683 0.000001
vn 0.923880 0.382683 0.000001
vn 0.309597 -0.923880 -0.224936
vn 0.363954 -0.923880 -0.118256
vn 0.000000 -1.000000 -0.000000
vn 0.224936 -0.923880 -0.309597
vn 0.118256 -0.923880 -0.363953
vn -0.000000 -0.923879 -0.382684
vn -0.118256 -0.923880 -0.363953
vn -0.224936 -0.923880 -0.309597
vn -0.309597 -0.923880 -0.224936
vn -0.363954 -0.923880 -0.118256
vn -0.382683 -0.923880 0.000000
vn -0.363954 -0.923880 0.118256
vn -0.309597 -0.923880 0.224936
vn -0.224936 -0.923879 0.309598
vn -0.118256 -0.923880 0.363954
vn 0.000000 -0.923880 0.382683
vn 0.118256 -0.923880 0.363953
vn 0.224936 -0.923880 0.309597
vn 0.309597 -0.923880 0.224936
vn 0.363954 -0.923879 0.118256
vn 0.382683 -0.923880 -0.000000
vn 0.363954 0.923880 -0.118255
vn 0.309597 0.923880 -0.224936
vn 0.000000 1.000000 -0.000000
vn 0.224935 0.923880 -0.309598
vn 0.118256 0.923880 -0.363953
vn -0.000000 0.923880 -0.382682
vn -0.118256 0.923880 -0.363953
vn -0.224936 0.923880 -0.309597
vn -0.309597 0.923880 -0.224935
vn -0.363954 0.923880 -0.118255
vn -0.382683 0.923880 0.000000
vn -0.363954 0.923880 0.118255
vn -0.309597 0.923880 0.224936
vn -0.224936 0.923879 0.309598
vn -0.118256 0.923880 0.363953
vn -0.000000 0.923880 0.382683
vn 0.118256 0.923880 0.363953
vn 0.224936 0.923880 0.309597
vn 0.309597 0.923880 0.224935
vn 0.363954 0.923880 0.118255
vn 0.382683 0.923880 -0.000000
s off
g pCube2
usemtl initialShadingGroup
f 1/1/1 2/2/2 4/4/3 3/3/4
f 3/3/5 4/4/6 6/6/7 5/5/8
f 5/5/9 6/6/10 8/8/11 7/7/12
f 7/7/13 8/8/14 2/10/15 1/9/16
f 2/2/17 8/11/18 6/12/19 4/4/20
f 7/13/21 1/1/22 3/3/23 5/14/24
s 1
f 9/15/25 10/16/26 30/17/27 29/18/28
f 10/16/26 11/19/29 31/20/30 30/17/27
f 11/19/29 12/21/31 32/22/32 31/20/30
f 12/21/31 13/23/33 33/24/34 32/22/32
f 13/23/33 14/25/35 34/26/36 33/24/34
f 14/25/35 15/27/37 35/28/38 34/26/36
f 15/27/37 16/29/39 36/30/40 35/28/38
f 16/29/39 17/31/41 37/32/42 36/30/40
f 17/31/41 18/33/43 38/34/44 37/32/42
f 18/33/43 19/35/45 39/36/46 38/34/44
f 19/35/45 20/37/47 40/38/48 39/36/46
f 20/37/47 21/39/49 41/40/50 40/38/48
f 21/39/49 22/41/51 42/42/52 41/40/50
f 22/41/51 23/43/53 43/44/54 42/42/52
f 23/43/53 24/45/55 44/46/56 43/44/54
f 24/45/55 25/47/57 45/48/58 44/46/56
f 25/47/57 26/49/59 46/50/60 45/48/58
f 26/49/59 27/51/61 47/52/62 46/50/60
f 27/51/61 28/53/63 48/54/64 47/52/62
f 28/53/63 9/55/25 29/56/28 48/54/64
s 2
f 29/18/65 30/17/66 50/57/67 49/58/68
f 30/17/66 31/20/69 51/59/70 50/57/67
f 31/20/69 32/22/71 52/60/72 51/59/70
f 32/22/71 33/24/73 53/61/74 52/60/72
f 33/24/73 34/26/75 54/62/76 53/61/74
f 34/26/75 35/28/77 55/63/78 54/62/76
f 35/28/77 36/30/79 56/64/80 55/63/78
f 36/30/79 37/32/81 57/65/82 56/64/80
f 37/32/81 38/34/83 58/66/84 57/65/82
f 38/34/83 39/36/85 59/67/86 58/66/84
f 39/36/85 40/38/87 60/68/88 59/67/86
f 40/38/87 41/40/89 61/69/90 60/68/88
f 41/40/89 42/42/91 62/70/92 61/69/90
f 42/42/91 43/44/93 63/71/94 62/70/92
f 43/44/93 44/46/95 64/72/96 63/71/94
f 44/46/95 45/48/97 65/73/98 64/72/96
f 45/48/97 46/50/99 66/74/100 65/73/98
f 46/50/99 47/52/101 67/75/102 66/74/100
f 47/52/101 48/54/103 68/76/104 67/75/102
f 48/54/103 29/56/65 49/77/68 68/76/104
s 3
f 10/16/105 9/15/106 69/78/107
f 11/19/108 10/16/105 69/79/107
f 12/21/109 11/19/108 69/80/107
f 13/23/110 12/21/109 69/81/107
f 14/25/111 13/23/110 69/82/107
f 15/27/112 14/25/111 69/83/107
f 16/29/113 15/27/112 69/84/107
f 17/31/114 16/29/113 69/85/107
f 18/33/115 17/31/114 69/86/107
f 19/35/116 18/33/115 69/87/107
f 20/37/117 19/35/116 69/88/107
f 21/39/118 20/37/117 69/89/107
f 22/41/119 21/39/118 69/90/107
f 23/43/120 22/41/119 69/91/107
f 24/45/121 23/43/120 69/92/107
f 25/47/122 24/45/121 69/93/107
f 26/49/123 25/47/122 69/94/107
f 27/51/124 26/49/123 69/95/107
f 28/53/125 27/51/124 69/96/107
f 9/55/106 28/53/125 69/97/107
s 4
f 49/58/126 50/57/127 70/98/128
f 50/57/127 51/59/129 70/99/128
f 51/59/129 52/60/130 70/100/128
f 52/60/130 53/61/131 70/101/128
f 53/61/131 54/62/132 70/102/128
f 54/62/132 55/63/133 70/103/128
f 55/63/133 56/64/134 70/104/128
f 56/64/134 57/65/135 70/105/128
f 57/65/135 58/66/136 70/106/128
f 58/66/136 59/67/137 70/107/128
f 59/67/137 60/68/138 70/108/128
f 60/68/138 61/69/139 70/109/128
f 61/69/139 62/70/140 70/110/128
f 62/70/140 63/71/141 70/111/128
f 63/71/141 64/72/142 70/112/128
f 64/72/142 65/73/143 70/113/128
f 65/73/143 66/74/144 70/114/128
f 66/74/144 67/75/145 70/115/128
f 67/75/145 68/76/146 70/116/128
f 68/76/146 49/77/126 70/117/128
