# This file uses centimeters as units for non-parametric coordinates.

mtllib player.mtl
g default
v -1.000000 0.000000 1.000000
v 1.000000 0.000000 1.000000
v -1.000000 2.000000 1.000000
v 1.000000 2.000000 1.000000
v -1.000000 2.000000 -1.000000
v 1.000000 2.000000 -1.000000
v -1.000000 0.000000 -1.000000
v 1.000000 0.000000 -1.000000
v 0.642312 2.678958 -0.208700
v 0.546382 2.678958 -0.396970
v 0.396970 2.678958 -0.546382
v 0.208700 2.678958 -0.642312
v 0.000000 2.678958 -0.675366
v -0.208700 2.678958 -0.642312
v -0.396970 2.678958 -0.546382
v -0.546382 2.678958 -0.396970
v -0.642312 2.678958 -0.208700
v -0.675366 2.678958 0.000000
v -0.642312 2.678958 0.208700
v -0.546382 2.678958 0.396970
v -0.396970 2.678958 0.546382
v -0.208700 2.678958 0.642310
v 0.000000 2.678958 0.675366
v 0.208700 2.678958 0.642310
v 0.396970 2.678958 0.546382
v 0.546382 2.678958 0.396970
v 0.642310 2.678958 0.208700
v 0.675366 2.678958 0.000000
v 0.908366 3.354324 -0.295146
v 0.772702 3.354324 -0.561400
v 0.561400 3.354324 -0.772702
v 0.295146 3.354324 -0.908366
v 0.000000 3.354324 -0.955112
v -0.295146 3.354324 -0.908366
v -0.561400 3.354324 -0.772702
v -0.772702 3.354324 -0.561400
v -0.908364 3.354324 -0.295146
v -0.955112 3.354324 0.000000
v -0.908364 3.354324 0.295146
v -0.772702 3.354324 0.561400
v -0.561400 3.354324 0.772702
v -0.295146 3.354324 0.908364
v 0.000000 3.354324 0.955112
v 0.295146 3.354324 0.908364
v 0.561400 3.354324 0.772702
v 0.772702 3.354324 0.561400
v 0.908364 3.354324 0.295146
v 0.955112 3.354324 0.000000
v 0.642312 4.029690 -0.208700
v 0.546382 4.029690 -0.396970
v 0.396970 4.029690 -0.546382
v 0.208700 4.029690 -0.642312
v 0.000000 4.029690 -0.675366
v -0.208700 4.029690 -0.642312
v -0.396970 4.029690 -0.546382
v -0.546382 4.029690 -0.396970
v -0.642312 4.029690 -0.208700
v -0.675366 4.029690 0.000000
v -0.642312 4.029690 0.208700
v -0.546382 4.029690 0.396970
v -0.396970 4.029690 0.546382
v -0.208700 4.029690 0.642310
v 0.000000 4.029690 0.675366
v 0.208700 4.029690 0.642310
v 0.396970 4.029690 0.546382
v 0.546382 4.029690 0.396970
v 0.642310 4.029690 0.208700
v 0.675366 4.029690 0.000000
v 0.000000 2.399212 0.000000
v 0.000000 4.309436 0.000000
vt 0.375000 0.000000
vt 0.625000 0.000000
vt 0.625000 0.250000
vt 0.375000 0.250000
vt 0.625000 0.500000
vt 0.375000 0.500000
vt 0.625000 0.750000
vt 0.375000 0.750000
vt 0.625000 1.000000
vt 0.375000 1.000000
vt 0.875000 0.000000
vt 0.875000 0.250000
vt 0.125000 0.000000
vt 0.125000 0.250000
vt 0.000000 0.250000
vt 0.050000 0.250000
vt 0.050000 0.500000
vt 0.000000 0.500000
vt 0.100000 0.250000
vt 0.100000 0.500000
vt 0.150000 0.250000
vt 0.150000 0.500000
vt 0.200000 0.250000
vt 0.200000 0.500000
vt 0.250000 0.250000
vt 0.250000 0.500000
vt 0.300000 0.250000
vt 0.300000 0.500000
vt 0.350000 0.250000
vt 0.350000 0.500000
vt 0.400000 0.250000
vt 0.400000 0.500000
vt 0.450000 0.250000
vt 0.450000 0.500000
vt 0.500000 0.250000
vt 0.500000 0.500000
vt 0.550000 0.250000
vt 0.550000 0.500000
vt 0.600000 0.250000
vt 0.600000 0.500000
vt 0.650000 0.250000
vt 0.650000 0.500000
vt 0.700000 0.250000
vt 0.700000 0.500000
vt 0.750000 0.250000
vt 0.750000 0.500000
vt 0.800000 0.250000
vt 0.800000 0.500000
vt 0.850000 0.250000
vt 0.850000 0.500000
vt 0.900000 0.250000
vt 0.900000 0.500000
vt 0.950000 0.250000
vt 0.950000 0.500000
vt 1.000000 0.250000
vt 1.000000 0.500000
vt 0.050000 0.750000
vt 0.000000 0.750000
vt 0.100000 0.750000
vt 0.150000 0.750000
vt 0.200000 0.750000
vt 0.250000 0.750000
vt 0.300000 0.750000
vt 0.350000 0.750000
vt 0.400000 0.750000
vt 0.450000 0.750000
vt 0.500000 0.750000
vt 0.550000 0.750000
vt 0.600000 0.750000
vt 0.650000 0.750000
vt 0.700000 0.750000
vt 0.750000 0.750000
vt 0.800000 0.750000
vt 0.850000 0.750000
vt 0.900000 0.750000
vt 0.950000 0.750000
vt 1.000000 0.750000
vt 0.025000 0.000000
vt 0.075000 0.000000
vt 0.125000 0.000000
vt 0.175000 0.000000
vt 0.225000 0.000000
vt 0.275000 0.000000
vt 0.325000 0.000000
vt 0.375000 0.000000
vt 0.425000 0.000000
vt 0.475000 0.000000
vt 0.525000 0.000000
vt 0.575000 0.000000
vt 0.625000 0.000000
vt 0.675000 0.000000
vt 0.725000 0.000000
vt 0.775000 0.000000
vt 0.825000 0.000000
vt 0.875000 0.000000
vt 0.925000 0.000000
vt 0.975000 0.000000
vt 0.025000 1.000000
vt 0.075000 1.000000
vt 0.125000 1.000000
vt 0.175000 1.000000
vt 0.225000 1.000000
vt 0.275000 1.000000
vt 0.325000 1.000000
vt 0.375000 1.000000
vt 0.425000 1.000000
vt 0.475000 1.000000
vt 0.525000 1.000000
vt 0.575000 1.000000
vt 0.625000 1.000000
vt 0.675000 1.000000
vt 0.725000 1.000000
vt 0.775000 1.000000
vt 0.825000 1.000000
vt 0.875000 1.000000
vt 0.925000 1.000000
vt 0.975000 1.000000
vn 0.000000 0.000000 1.000000
vn 0.000000 0.000000 1.000000
vn 0.000000 0.000000 1.000000
vn 0.000000 0.000000 1.000000
vn 0.000000 1.000000 0.000000
vn 0.000000 1.000000 0.000000
vn 0.000000 1.000000 0.000000
vn 0.000000 1.000000 0.000000
vn 0.000000 0.000000 -1.000000
vn 0.000000 0.000000 -1.000000
vn 0.000000 0.000000 -1.000000
vn 0.000000 0.000000 -1.000000
vn 0.000000 -1.000000 0.000000
vn 0.000000 -1.000000 0.000000
vn 0.000000 -1.000000 0.000000
vn 0.000000 -1.000000 0.000000
vn 1.000000 0.000000 0.000000
vn 1.000000 0.000000 0.000000
vn 1.000000 0.000000 0.000000
vn 1.000000 0.000000 0.000000
vn -1.000000 0.000000 0.000000
vn -1.000000 0.000000 0.000000
vn -1.000000 0.000000 0.000000
vn -1.000000 0.000000 0.000000
vn 0.878662 -0.382684 -0.285493
vn 0.747434 -0.382684 -0.543043
vn 0.747434 -0.382684 -0.543043
vn 0.878662 -0.382684 -0.285493
vn 0.747434 -0.382684 -0.543043
vn 0.543042 -0.382683 -0.747435
vn 0.543042 -0.382683 -0.747435
vn 0.747434 -0.382684 -0.543043
vn 0.543042 -0.382683 -0.747435
vn 0.285494 -0.382683 -0.878662
vn 0.285494 -0.382684 -0.878662
vn 0.543042 -0.382683 -0.747435
vn 0.285494 -0.382683 -0.878662
vn 0.000000 -0.382684 -0.923879
vn 0.000000 -0.382684 -0.923879
vn 0.285494 -0.382684 -0.878662
vn 0.000000 -0.382684 -0.923879
vn -0.285495 -0.382684 -0.878661
vn -0.285495 -0.382684 -0.878661
vn 0.000000 -0.382684 -0.923879
vn -0.285495 -0.382684 -0.878661
vn -0.543043 -0.382684 -0.747434
vn -0.543043 -0.382684 -0.747434
vn -0.285495 -0.382684 -0.878661
vn -0.543043 -0.382684 -0.747434
vn -0.747434 -0.382683 -0.543043
vn -0.747434 -0.382683 -0.543043
vn -0.543043 -0.382684 -0.747434
vn -0.747434 -0.382683 -0.543043
vn -0.878662 -0.382683 -0.285495
vn -0.878662 -0.382683 -0.285495
vn -0.747434 -0.382683 -0.543043
vn -0.878662 -0.382683 -0.285495
vn -0.923880 -0.382683 0.000000
vn -0.923880 -0.382683 0.000000
vn -0.878662 -0.382683 -0.285495
vn -0.923880 -0.382683 0.000000
vn -0.878662 -0.382683 0.285495
vn -0.878662 -0.382683 0.285495
vn -0.923880 -0.382683 0.000000
vn -0.878662 -0.382683 0.285495
vn -0.747434 -0.382683 0.543043
vn -0.747434 -0.382683 0.543043
vn -0.878662 -0.382683 0.285495
vn -0.747434 -0.382683 0.543043
vn -0.543043 -0.382684 0.747434
vn -0.543043 -0.382683 0.747434
vn -0.747434 -0.382683 0.543043
vn -0.543043 -0.382684 0.747434
vn -0.285494 -0.382683 0.878662
vn -0.285494 -0.382684 0.878662
vn -0.543043 -0.382683 0.747434
vn -0.285494 -0.382683 0.878662
vn 0.000000 -0.382683 0.923880
vn 0.000000 -0.382683 0.923880
vn -0.285494 -0.382684 0.878662
vn 0.000000 -0.382683 0.923880
vn 0.285494 -0.382683 0.878662
vn 0.285494 -0.382683 0.878662
vn 0.000000 -0.382683 0.923880
vn 0.285494 -0.382683 0.878662
vn 0.543043 -0.382683 0.747434
vn 0.543043 -0.382683 0.747434
vn 0.285494 -0.382683 0.878662
vn 0.543043 -0.382683 0.747434
vn 0.747434 -0.382683 0.543043
vn 0.747434 -0.382683 0.543043
vn 0.543043 -0.382683 0.747434
vn 0.747434 -0.382683 0.543043
vn 0.878662 -0.382683 0.285494
vn 0.878662 -0.382683 0.285494
vn 0.747434 -0.382683 0.543043
vn 0.878662 -0.382683 0.285494
vn 0.923880 -0.382683 0.000001
vn 0.923880 -0.382683 0.000001
vn 0.878662 -0.382683 0.285494
vn 0.923880 -0.382683 0.000001
vn 0.878662 -0.382684 -0.285493
vn 0.878662 -0.382684 -0.285493
vn 0.923880 -0.382683 0.000001
vn 0.878662 0.382684 -0.285493
vn 0.747434 0.382684 -0.543043
vn 0.747434 0.382684 -0.543043
vn 0.878662 0.382684 -0.285493
vn 0.747434 0.382684 -0.543043
vn 0.543043 0.382684 -0.747434
vn 0.543043 0.382684 -0.747434
vn 0.747434 0.382684 -0.543043
vn 0.543043 0.382684 -0.747434
vn 0.285494 0.382683 -0.878662
vn 0.285494 0.382683 -0.878662
vn 0.543043 0.382684 -0.747434
vn 0.285494 0.382683 -0.878662
vn -0.000000 0.382683 -0.923880
vn -0.000000 0.382683 -0.923880
vn 0.285494 0.382683 -0.878662
vn -0.000000 0.382683 -0.923880
vn -0.285495 0.382683 -0.878662
vn -0.285495 0.382683 -0.878662
vn -0.000000 0.382683 -0.923880
vn -0.285495 0.382683 -0.878662
vn -0.543043 0.382683 -0.747434
vn -0.543043 0.382684 -0.747434
vn -0.285495 0.382683 -0.878662
vn -0.543043 0.382683 -0.747434
vn -0.747434 0.382683 -0.543043
vn -0.747434 0.382683 -0.543043
vn -0.543043 0.382684 -0.747434
vn -0.747434 0.382683 -0.543043
vn -0.878662 0.382683 -0.285494
vn -0.878662 0.382683 -0.285494
vn -0.747434 0.382683 -0.543043
vn -0.878662 0.382683 -0.285494
vn -0.923880 0.382683 0.000000
vn -0.923880 0.382683 0.000000
vn -0.878662 0.382683 -0.285494
vn -0.923880 0.382683 0.000000
vn -0.878662 0.382683 0.285495
vn -0.878662 0.382683 0.285495
vn -0.923880 0.382683 0.000000
vn -0.878662 0.382683 0.285495
vn -0.747434 0.382683 0.543043
vn -0.747434 0.382683 0.543043
vn -0.878662 0.382683 0.285495
vn -0.747434 0.382683 0.543043
vn -0.543043 0.382683 0.747434
vn -0.543043 0.382683 0.747434
vn -0.747434 0.382683 0.543043
vn -0.543043 0.382683 0.747434
vn -0.285494 0.382683 0.878662
vn -0.285494 0.382683 0.878662
vn -0.543043 0.382683 0.747434
vn -0.285494 0.382683 0.878662
vn 0.000000 0.382683 0.923880
vn 0.000000 0.382683 0.923880
vn -0.285494 0.382683 0.878662
vn 0.000000 0.382683 0.923880
vn 0.285495 0.382683 0.878662
vn 0.285495 0.382683 0.878662
vn 0.000000 0.382683 0.923880
vn 0.285495 0.382683 0.878662
vn 0.543043 0.382683 0.747434
vn 0.543043 0.382683 0.747434
vn 0.285495 0.382683 0.878662
vn 0.543043 0.382683 0.747434
vn 0.747434 0.382683 0.543043
vn 0.747434 0.382683 0.543043
vn 0.543043 0.382683 0.747434
vn 0.747434 0.382683 0.543043
vn 0.878662 0.382683 0.285494
vn 0.878662 0.382683 0.285494
vn 0.747434 0.382683 0.543043
vn 0.878662 0.382683 0.285494
vn 0.923880 0.382683 0.000001
vn 0.923880 0.382683 0.000001
vn 0.878662 0.382683 0.285494
vn 0.923880 0.382683 0.000001
vn 0.878662 0.382684 -0.285493
vn 0.878662 0.382684 -0.285493
vn 0.923880 0.382683 0.000001
vn 0.309597 -0.923880 -0.224936
vn 0.363954 -0.923879 -0.118256
vn 0.000000 -1.000000 0.000000
vn 0.224936 -0.923880 -0.309597
vn 0.309597 -0.923880 -0.224936
vn 0.000000 -1.000000 0.000000
vn 0.118256 -0.923880 -0.363953
vn 0.224936 -0.923880 -0.309597
vn 0.000000 -1.000000 0.000000
vn 0.000000 -0.923879 -0.382684
vn 0.118256 -0.923880 -0.363953
vn 0.000000 -1.000000 0.000000
vn -0.118256 -0.923880 -0.363953
vn 0.000000 -0.923879 -0.382684
vn 0.000000 -1.000000 0.000000
vn -0.224936 -0.923880 -0.309597
vn -0.118256 -0.923880 -0.363953
vn 0.000000 -1.000000 0.000000
vn -0.309597 -0.923880 -0.224936
vn -0.224936 -0.923880 -0.309597
vn 0.000000 -1.000000 0.000000
vn -0.363954 -0.923879 -0.118256
vn -0.309597 -0.923880 -0.224936
vn 0.000000 -1.000000 0.000000
vn -0.382683 -0.923880 0.000000
vn -0.363954 -0.923879 -0.118256
vn 0.000000 -1.000000 0.000000
vn -0.363954 -0.923879 0.118256
vn -0.382683 -0.923880 0.000000
vn 0.000000 -1.000000 0.000000
vn -0.309597 -0.923880 0.224936
vn -0.363954 -0.923879 0.118256
vn 0.000000 -1.000000 0.000000
vn -0.224936 -0.923879 0.309598
vn -0.309597 -0.923880 0.224936
vn 0.000000 -1.000000 0.000000
vn -0.118256 -0.923879 0.363954
vn -0.224936 -0.923879 0.309598
vn 0.000000 -1.000000 0.000000
vn 0.000000 -0.923880 0.382683
vn -0.118256 -0.923879 0.363954
vn 0.000000 -1.000000 0.000000
vn 0.118256 -0.923880 0.363953
vn 0.000000 -0.923880 0.382683
vn 0.000000 -1.000000 0.000000
vn 0.224936 -0.923880 0.309597
vn 0.118256 -0.923880 0.363953
vn 0.000000 -1.000000 0.000000
vn 0.309597 -0.923880 0.224936
vn 0.224936 -0.923880 0.309597
vn 0.000000 -1.000000 0.000000
vn 0.363954 -0.923879 0.118256
vn 0.309597 -0.923880 0.224936
vn 0.000000 -1.000000 0.000000
vn 0.382683 -0.923880 0.000000
vn 0.363954 -0.923879 0.118256
vn 0.000000 -1.000000 0.000000
vn 0.363954 -0.923879 -0.118256
vn 0.382683 -0.923880 0.000000
vn 0.000000 -1.000000 0.000000
vn 0.363954 0.923880 -0.118255
vn 0.309597 0.923880 -0.224936
vn 0.000000 1.000000 0.000000
vn 0.309597 0.923880 -0.224936
vn 0.224935 0.923880 -0.309598
vn 0.000000 1.000000 0.000000
vn 0.224935 0.923880 -0.309598
vn 0.118256 0.923880 -0.363953
vn 0.000000 1.000000 0.000000
vn 0.118256 0.923880 -0.363953
vn -0.000000 0.923880 -0.382682
vn 0.000000 1.000000 0.000000
vn -0.000000 0.923880 -0.382682
vn -0.118256 0.923880 -0.363953
vn 0.000000 1.000000 0.000000
vn -0.118256 0.923880 -0.363953
vn -0.224936 0.923880 -0.309597
vn 0.000000 1.000000 0.000000
vn -0.224936 0.923880 -0.309597
vn -0.309597 0.923880 -0.224935
vn 0.000000 1.000000 0.000000
vn -0.309597 0.923880 -0.224935
vn -0.363954 0.923880 -0.118255
vn 0.000000 1.000000 0.000000
vn -0.363954 0.923880 -0.118255
vn -0.382683 0.923880 0.000000
vn 0.000000 1.000000 0.000000
vn -0.382683 0.923880 0.000000
vn -0.363954 0.923880 0.118255
vn 0.000000 1.000000 0.000000
vn -0.363954 0.923880 0.118255
vn -0.309597 0.923880 0.224936
vn 0.000000 1.000000 0.000000
vn -0.309597 0.923880 0.224936
vn -0.224936 0.923879 0.309598
vn 0.000000 1.000000 0.000000
vn -0.224936 0.923879 0.309598
vn -0.118256 0.923880 0.363953
vn 0.000000 1.000000 0.000000
vn -0.118256 0.923880 0.363953
vn 0.000000 0.923880 0.382683
vn 0.000000 1.000000 0.000000
vn 0.000000 0.923880 0.382683
vn 0.118256 0.923880 0.363953
vn 0.000000 1.000000 0.000000
vn 0.118256 0.923880 0.363953
vn 0.224936 0.923880 0.309597
vn 0.000000 1.000000 0.000000
vn 0.224936 0.923880 0.309597
vn 0.309597 0.923880 0.224935
vn 0.000000 1.000000 0.000000
vn 0.309597 0.923880 0.224935
vn 0.363954 0.923880 0.118255
vn 0.000000 1.000000 0.000000
vn 0.363954 0.923880 0.118255
vn 0.382683 0.923880 0.000000
vn 0.000000 1.000000 0.000000
vn 0.382683 0.923880 0.000000
vn 0.363954 0.923880 -0.118255
vn 0.000000 1.000000 0.000000
s off
g player:pCube2
usemtl initialShadingGroup
f 1/1/1 2/2/2 4/3/3 3/4/4
f 3/4/5 4/3/6 6/5/7 5/6/8
f 5/6/9 6/5/10 8/7/11 7/8/12
f 7/8/13 8/7/14 2/9/15 1/10/16
f 2/2/17 8/11/18 6/12/19 4/3/20
f 7/13/21 1/1/22 3/4/23 5/14/24
f 9/15/25 10/16/26 30/17/27 29/18/28
f 10/16/29 11/19/30 31/20/31 30/17/32
f 11/19/33 12/21/34 32/22/35 31/20/36
f 12/21/37 13/23/38 33/24/39 32/22/40
f 13/23/41 14/25/42 34/26/43 33/24/44
f 14/25/45 15/27/46 35/28/47 34/26/48
f 15/27/49 16/29/50 36/30/51 35/28/52
f 16/29/53 17/31/54 37/32/55 36/30/56
f 17/31/57 18/33/58 38/34/59 37/32/60
f 18/33/61 19/35/62 39/36/63 38/34/64
f 19/35/65 20/37/66 40/38/67 39/36/68
f 20/37/69 21/39/70 41/40/71 40/38/72
f 21/39/73 22/41/74 42/42/75 41/40/76
f 22/41/77 23/43/78 43/44/79 42/42/80
f 23/43/81 24/45/82 44/46/83 43/44/84
f 24/45/85 25/47/86 45/48/87 44/46/88
f 25/47/89 26/49/90 46/50/91 45/48/92
f 26/49/93 27/51/94 47/52/95 46/50/96
f 27/51/97 28/53/98 48/54/99 47/52/100
f 28/53/101 9/55/102 29/56/103 48/54/104
f 29/18/105 30/17/106 50/57/107 49/58/108
f 30/17/109 31/20/110 51/59/111 50/57/112
f 31/20/113 32/22/114 52/60/115 51/59/116
f 32/22/117 33/24/118 53/61/119 52/60/120
f 33/24/121 34/26/122 54/62/123 53/61/124
f 34/26/125 35/28/126 55/63/127 54/62/128
f 35/28/129 36/30/130 56/64/131 55/63/132
f 36/30/133 37/32/134 57/65/135 56/64/136
f 37/32/137 38/34/138 58/66/139 57/65/140
f 38/34/141 39/36/142 59/67/143 58/66/144
f 39/36/145 40/38/146 60/68/147 59/67/148
f 40/38/149 41/40/150 61/69/151 60/68/152
f 41/40/153 42/42/154 62/70/155 61/69/156
f 42/42/157 43/44/158 63/71/159 62/70/160
f 43/44/161 44/46/162 64/72/163 63/71/164
f 44/46/165 45/48/166 65/73/167 64/72/168
f 45/48/169 46/50/170 66/74/171 65/73/172
f 46/50/173 47/52/174 67/75/175 66/74/176
f 47/52/177 48/54/178 68/76/179 67/75/180
f 48/54/181 29/56/182 49/77/183 68/76/184
f 10/16/185 9/15/186 69/78/187
f 11/19/188 10/16/189 69/79/190
f 12/21/191 11/19/192 69/80/193
f 13/23/194 12/21/195 69/81/196
f 14/25/197 13/23/198 69/82/199
f 15/27/200 14/25/201 69/83/202
f 16/29/203 15/27/204 69/84/205
f 17/31/206 16/29/207 69/85/208
f 18/33/209 17/31/210 69/86/211
f 19/35/212 18/33/213 69/87/214
f 20/37/215 19/35/216 69/88/217
f 21/39/218 20/37/219 69/89/220
f 22/41/221 21/39/222 69/90/223
f 23/43/224 22/41/225 69/91/226
f 24/45/227 23/43/228 69/92/229
f 25/47/230 24/45/231 69/93/232
f 26/49/233 25/47/234 69/94/235
f 27/51/236 26/49/237 69/95/238
f 28/53/239 27/51/240 69/96/241
f 9/55/242 28/53/243 69/97/244
f 49/58/245 50/57/246 70/98/247
f 50/57/248 51/59/249 70/99/250
f 51/59/251 52/60/252 70/100/253
f 52/60/254 53/61/255 70/101/256
f 53/61/257 54/62/258 70/102/259
f 54/62/260 55/63/261 70/103/262
f 55/63/263 56/64/264 70/104/265
f 56/64/266 57/65/267 70/105/268
f 57/65/269 58/66/270 70/106/271
f 58/66/272 59/67/273 70/107/274
f 59/67/275 60/68/276 70/108/277
f 60/68/278 61/69/279 70/109/280
f 61/69/281 62/70/282 70/110/283
f 62/70/284 63/71/285 70/111/286
f 63/71/287 64/72/288 70/112/289
f 64/72/290 65/73/291 70/113/292
f 65/73/293 66/74/294 70/114/295
f 66/74/296 67/75/297 70/115/298
f 67/75/299 68/76/300 70/116/301
f 68/76/302 49/77/303 70/117/304
