# This file uses centimeters as units for non-parametric coordinates.

mtllib stone1.mtl
g default
v 1.220219 0.196678 -0.655967
v 1.224378 0.012345 -0.670310
v 0.612764 -0.065329 1.342882
v 0.123519 0.048859 -0.266514
vt 0.375000 0.033494
vt 0.375000 0.466506
vt 0.750000 0.250000
vt 0.250000 0.500000
vt 0.416667 0.500000
vt 0.583333 0.500000
vt 0.750000 0.500000
vt 0.500000 1.000000
vn 0.956830 -0.001026 0.290648
vn 0.956829 -0.001026 0.290648
vn 0.956829 -0.001026 0.290648
vn -0.341724 0.065240 -0.937533
vn -0.341724 0.065240 -0.937533
vn -0.341724 0.065240 -0.937533
vn -0.097938 0.990153 0.100025
vn -0.097938 0.990153 0.100025
vn -0.097938 0.990153 0.100025
s off
g pCone1
usemtl initialShadingGroup
f 1/1/1 3/3/2 2/2/3
f 1/4/4 2/5/5 4/8/6
f 3/6/7 1/7/8 4/8/9
g default
v -0.019383 -0.006817 0.439618
v -1.081936 -0.006817 -0.063322
v -1.888607 -0.006817 0.791808
v -1.324605 -0.006817 1.823247
v -0.169361 -0.006817 1.605582
v -0.896779 0.295239 0.919387
vt 0.250000 0.500000
vt 0.350000 0.500000
vt 0.450000 0.500000
vt 0.550000 0.500000
vt 0.650000 0.500000
vt 0.750000 0.500000
vt 0.500000 1.000000
vn 0.149644 0.936833 -0.316150
vn 0.149644 0.936833 -0.316150
vn 0.149644 0.936833 -0.316150
vn -0.254434 0.936833 -0.240015
vn -0.254434 0.936833 -0.240015
vn -0.254434 0.936833 -0.240015
vn -0.306892 0.936833 0.167812
vn -0.306892 0.936833 0.167812
vn -0.306892 0.936833 0.167812
vn 0.064764 0.936833 0.343729
vn 0.064764 0.936833 0.343729
vn 0.064764 0.936833 0.343729
vn 0.346919 0.936833 0.044624
vn 0.346919 0.936833 0.044624
vn 0.346919 0.936833 0.044624
s off
g pCone2
usemtl initialShadingGroup
f 5/9/10 6/10/11 10/15/12
f 6/10/13 7/11/14 10/15/15
f 7/11/16 8/12/17 10/15/18
f 8/12/19 9/13/20 10/15/21
f 9/13/22 5/14/23 10/15/24
g default
v 0.541047 0.159485 -1.029766
v 0.545206 -0.024849 -1.044109
v -2.757350 -0.084553 -0.042168
v -0.829197 0.080063 -1.598670
vt 0.375000 0.033494
vt 0.375000 0.466506
vt 0.750000 0.250000
vt 0.250000 0.500000
vt 0.416667 0.500000
vt 0.583333 0.500000
vt 0.750000 0.500000
vt 0.500000 1.000000
vn 0.290771 -0.067701 0.954394
vn 0.290771 -0.067701 0.954394
vn 0.290771 -0.067701 0.954394
vn 0.378237 0.080293 -0.922220
vn 0.378237 0.080293 -0.922220
vn 0.378237 0.080293 -0.922220
vn -0.067104 0.997495 0.022369
vn -0.067104 0.997495 0.022369
vn -0.067104 0.997495 0.022369
s off
g pCone3
usemtl initialShadingGroup
f 11/16/25 13/18/26 12/17/27
f 11/19/28 12/20/29 14/23/30
f 13/21/31 11/22/32 14/23/33
