# This file uses centimeters as units for non-parametric coordinates.

mtllib stone2.mtl
g default
v -0.363269 -0.006817 -1.457287
v -0.620110 -0.006817 -2.242686
v -1.514876 -0.006817 -1.840160
v -1.811031 -0.006817 -0.805986
v -1.099298 -0.006817 -0.569358
v -1.081717 0.295239 -1.383095
vt 0.250000 0.500000
vt 0.350000 0.500000
vt 0.450000 0.500000
vt 0.550000 0.500000
vt 0.650000 0.500000
vt 0.750000 0.500000
vt 0.500000 1.000000
vn 0.373903 0.919373 -0.122274
vn 0.373903 0.919373 -0.122274
vn 0.373903 0.919373 -0.122274
vn -0.185828 0.891538 -0.413073
vn -0.185828 0.891537 -0.413072
vn -0.185828 0.891537 -0.413072
vn -0.467828 0.873606 -0.133971
vn -0.467828 0.873606 -0.133971
vn -0.467828 0.873607 -0.133971
vn -0.114219 0.932164 0.343547
vn -0.114219 0.932164 0.343547
vn -0.114219 0.932164 0.343547
vn 0.394748 0.858547 0.327217
vn 0.394748 0.858547 0.327217
vn 0.394748 0.858547 0.327217
s off
g pCone4
usemtl initialShadingGroup
f 1/1/1 2/2/2 6/7/3
f 2/2/4 3/3/5 6/7/6
f 3/3/7 4/4/8 6/7/9
f 4/4/10 5/5/11 6/7/12
f 5/5/13 1/6/14 6/7/15
g default
v 2.239436 0.004806 -0.601672
v 0.949580 0.004806 -0.974627
v -0.029655 0.004806 -0.340505
v 0.654999 0.004806 0.424360
v 2.057374 0.004806 0.262950
v 1.174347 0.206760 -0.245899
vt 0.250000 0.500000
vt 0.350000 0.500000
vt 0.450000 0.500000
vt 0.550000 0.500000
vt 0.650000 0.500000
vt 0.750000 0.500000
vt 0.500000 1.000000
vn 0.083871 0.953324 -0.290066
vn 0.083871 0.953324 -0.290066
vn 0.083871 0.953324 -0.290066
vn -0.144224 0.964156 -0.222715
vn -0.144224 0.964156 -0.222715
vn -0.144224 0.964156 -0.222715
vn -0.175358 0.971911 0.156969
vn -0.175358 0.971911 0.156969
vn -0.175358 0.971911 0.156969
vn 0.036125 0.948780 0.313867
vn 0.036125 0.948780 0.313867
vn 0.036125 0.948780 0.313867
vn 0.199667 0.978961 0.042043
vn 0.199667 0.978961 0.042043
vn 0.199667 0.978961 0.042043
s off
g pCone3
usemtl initialShadingGroup
f 7/8/16 8/9/17 12/14/18
f 8/9/19 9/10/20 12/14/21
f 9/10/22 10/11/23 12/14/24
f 10/11/25 11/12/26 12/14/27
f 11/12/28 7/13/29 12/14/30
g default
v -0.019383 -0.006817 0.439618
v -1.081936 -0.006817 -0.063322
v -1.888607 -0.006817 0.791808
v -1.324605 -0.006817 1.823247
v -0.169361 -0.006817 1.605582
v -0.896779 0.295239 0.919387
vt 0.250000 0.500000
vt 0.350000 0.500000
vt 0.450000 0.500000
vt 0.550000 0.500000
vt 0.650000 0.500000
vt 0.750000 0.500000
vt 0.500000 1.000000
vn 0.149644 0.936833 -0.316150
vn 0.149644 0.936833 -0.316150
vn 0.149644 0.936833 -0.316150
vn -0.254434 0.936833 -0.240015
vn -0.254434 0.936833 -0.240015
vn -0.254434 0.936833 -0.240015
vn -0.306892 0.936833 0.167812
vn -0.306892 0.936833 0.167812
vn -0.306892 0.936833 0.167812
vn 0.064764 0.936833 0.343729
vn 0.064764 0.936833 0.343729
vn 0.064764 0.936833 0.343729
vn 0.346919 0.936833 0.044624
vn 0.346919 0.936833 0.044624
vn 0.346919 0.936833 0.044624
s off
g pCone2
usemtl initialShadingGroup
f 13/15/31 14/16/32 18/21/33
f 14/16/34 15/17/35 18/21/36
f 15/17/37 16/18/38 18/21/39
f 16/18/40 17/19/41 18/21/42
f 17/19/43 13/20/44 18/21/45
