# This file uses centimeters as units for non-parametric coordinates.

mtllib scope.mtl
g default
v -0.656885 -0.145078 -0.000000
v 0.648519 -0.145078 -0.000000
v -0.656885 -0.096719 0.048359
v 0.648519 -0.096719 0.048359
v -0.656885 -0.048359 0.096719
v 0.648519 -0.048359 0.096719
v -0.656885 -0.000000 0.145078
v 0.648519 -0.000000 0.145078
v -0.656885 0.048359 0.096719
v 0.648519 0.048359 0.096719
v -0.656885 0.096719 0.048359
v 0.648519 0.096719 0.048359
v -0.656885 0.145078 0.000000
v 0.648519 0.145078 0.000000
v -0.656885 0.096719 -0.048359
v 0.648519 0.096719 -0.048359
v -0.656885 0.048359 -0.096719
v 0.648519 0.048359 -0.096719
v -0.656885 0.000000 -0.145078
v 0.648519 0.000000 -0.145078
v -0.656885 -0.048359 -0.096719
v 0.648519 -0.048359 -0.096719
v -0.656885 -0.096719 -0.048359
v 0.648519 -0.096719 -0.048359
v 0.715088 0.000000 -0.118554
v 0.715088 -0.118554 -0.000000
v 0.715088 0.118554 0.000000
v 0.715088 -0.000000 0.118554
v -0.723454 0.000000 -0.118554
v -0.723454 -0.118554 -0.000000
v -0.723454 0.118554 0.000000
v -0.723454 -0.000000 0.118554
v -0.723454 -0.205107 -0.000000
v -0.656885 -0.205107 -0.000000
v -0.656885 -0.136738 0.068369
v -0.723454 -0.136738 0.068369
v -0.656885 -0.068369 0.136738
v -0.723454 -0.068369 0.136738
v -0.656885 -0.000000 0.205107
v -0.723454 -0.000000 0.205107
v -0.656885 0.068369 0.136738
v -0.723454 0.068369 0.136738
v -0.656885 0.136738 0.068369
v -0.723454 0.136738 0.068369
v -0.656885 0.205107 0.000000
v -0.723454 0.205107 0.000000
v -0.656885 0.136738 -0.068369
v -0.723454 0.136738 -0.068369
v -0.656885 0.068369 -0.136738
v -0.723454 0.068369 -0.136738
v -0.656885 0.000000 -0.205107
v -0.723454 0.000000 -0.205107
v -0.656885 -0.068369 -0.136738
v -0.723454 -0.068369 -0.136738
v -0.656885 -0.136738 -0.068369
v -0.723454 -0.136738 -0.068369
v -0.723454 0.000000 -0.130516
v -0.723454 -0.130516 -0.000000
v -0.723454 0.130516 0.000000
v -0.723454 -0.000000 0.130516
v 0.648519 -0.205107 -0.000000
v 0.715088 -0.205107 -0.000000
v 0.715088 -0.136738 0.068369
v 0.648519 -0.136738 0.068369
v 0.715088 -0.068369 0.136738
v 0.648519 -0.068369 0.136738
v 0.715088 -0.000000 0.205107
v 0.648519 -0.000000 0.205107
v 0.715088 0.068369 0.136738
v 0.648519 0.068369 0.136738
v 0.715088 0.136738 0.068369
v 0.648519 0.136738 0.068369
v 0.715088 0.205107 0.000000
v 0.648519 0.205107 0.000000
v 0.715088 0.136738 -0.068369
v 0.648519 0.136738 -0.068369
v 0.715088 0.068369 -0.136738
v 0.648519 0.068369 -0.136738
v 0.715088 0.000000 -0.205107
v 0.648519 0.000000 -0.205107
v 0.715088 -0.068369 -0.136738
v 0.648519 -0.068369 -0.136738
v 0.715088 -0.136738 -0.068369
v 0.648519 -0.136738 -0.068369
v 0.715088 0.000000 -0.130516
v 0.715088 -0.130516 -0.000000
v 0.715088 0.130516 0.000000
v 0.715088 -0.000000 0.130516
vt 0.375000 0.000000
vt 0.458333 0.000000
vt 0.541667 0.000000
vt 0.625000 0.000000
vt 0.375000 0.083333
vt 0.458333 0.083333
vt 0.541667 0.083333
vt 0.625000 0.083333
vt 0.375000 0.166667
vt 0.458333 0.166667
vt 0.541667 0.166667
vt 0.625000 0.166667
vt 0.375000 0.250000
vt 0.458333 0.250000
vt 0.541667 0.250000
vt 0.625000 0.250000
vt 0.375000 0.333333
vt 0.458333 0.333333
vt 0.541667 0.333333
vt 0.625000 0.333333
vt 0.375000 0.416667
vt 0.458333 0.416667
vt 0.541667 0.416667
vt 0.625000 0.416667
vt 0.375000 0.500000
vt 0.458333 0.500000
vt 0.541667 0.500000
vt 0.625000 0.500000
vt 0.375000 0.583333
vt 0.458333 0.583333
vt 0.541667 0.583333
vt 0.625000 0.583333
vt 0.375000 0.666667
vt 0.458333 0.666667
vt 0.541667 0.666667
vt 0.625000 0.666667
vt 0.375000 0.750000
vt 0.458333 0.750000
vt 0.541667 0.750000
vt 0.625000 0.750000
vt 0.375000 0.833333
vt 0.458333 0.833333
vt 0.541667 0.833333
vt 0.625000 0.833333
vt 0.375000 0.916667
vt 0.458333 0.916667
vt 0.541667 0.916667
vt 0.625000 0.916667
vt 0.375000 1.000000
vt 0.458333 1.000000
vt 0.541667 1.000000
vt 0.625000 1.000000
vt 0.875000 0.000000
vt 0.791667 0.000000
vt 0.708333 0.000000
vt 0.875000 0.083333
vt 0.791667 0.083333
vt 0.708333 0.083333
vt 0.875000 0.166667
vt 0.791667 0.166667
vt 0.708333 0.166667
vt 0.875000 0.250000
vt 0.791667 0.250000
vt 0.708333 0.250000
vt 0.125000 0.000000
vt 0.208333 0.000000
vt 0.291667 0.000000
vt 0.125000 0.083333
vt 0.208333 0.083333
vt 0.291667 0.083333
vt 0.125000 0.166667
vt 0.208333 0.166667
vt 0.291667 0.166667
vt 0.125000 0.250000
vt 0.208333 0.250000
vt 0.291667 0.250000
vt 0.458333 0.000000
vt 0.458333 0.083333
vt 0.541667 0.083333
vt 0.541667 0.000000
vt 0.458333 0.166667
vt 0.541667 0.166667
vt 0.458333 0.250000
vt 0.541667 0.250000
vt 0.458333 0.333333
vt 0.541667 0.333333
vt 0.458333 0.416667
vt 0.541667 0.416667
vt 0.458333 0.500000
vt 0.541667 0.500000
vt 0.458333 0.583333
vt 0.541667 0.583333
vt 0.458333 0.666667
vt 0.541667 0.666667
vt 0.458333 0.750000
vt 0.541667 0.750000
vt 0.458333 0.833333
vt 0.541667 0.833333
vt 0.458333 0.916667
vt 0.541667 0.916667
vt 0.458333 1.000000
vt 0.541667 1.000000
vt 0.791667 0.083333
vt 0.708333 0.083333
vt 0.791667 0.166667
vt 0.708333 0.166667
vt 0.291667 0.083333
vt 0.208333 0.083333
vt 0.208333 0.166667
vt 0.291667 0.166667
vn 0.000000 -0.707107 0.707107
vn 0.000000 -0.707107 0.707107
vn 0.000000 -0.707107 0.707107
vn 0.000000 -0.707107 0.707107
vn 0.000000 -0.707107 0.707107
vn 0.000000 -0.707107 0.707107
vn 0.000000 -0.707107 0.707107
vn 0.000000 -0.707107 0.707107
vn 0.000000 -0.707107 0.707107
vn 0.000000 -0.707107 0.707107
vn 0.000000 -0.707107 0.707107
vn 0.000000 -0.707107 0.707107
vn 0.000000 -0.707107 0.707107
vn 0.000000 -0.707107 0.707107
vn 0.000000 -0.707107 0.707107
vn 0.000000 -0.707107 0.707107
vn 0.000000 -0.707107 0.707107
vn 0.000000 -0.707107 0.707107
vn 0.000000 -0.707107 0.707107
vn 0.000000 -0.707107 0.707107
vn 0.000000 -0.707106 0.707107
vn 0.000000 -0.707106 0.707107
vn 0.000000 -0.707107 0.707107
vn 0.000000 -0.707107 0.707107
vn 0.000000 0.707107 0.707107
vn 0.000000 0.707107 0.707107
vn 0.000000 0.707107 0.707107
vn 0.000000 0.707107 0.707107
vn 0.000000 0.707107 0.707107
vn 0.000000 0.707107 0.707107
vn 0.000000 0.707107 0.707107
vn 0.000000 0.707107 0.707107
vn 0.000000 0.707107 0.707107
vn 0.000000 0.707107 0.707107
vn 0.000000 0.707107 0.707107
vn 0.000000 0.707107 0.707107
vn 0.000000 0.707107 0.707107
vn 0.000000 0.707107 0.707107
vn 0.000000 0.707107 0.707107
vn 0.000000 0.707107 0.707107
vn 0.000000 0.707107 0.707107
vn 0.000000 0.707107 0.707107
vn 0.000000 0.707107 0.707107
vn 0.000000 0.707107 0.707107
vn 0.000000 0.707107 0.707107
vn 0.000000 0.707107 0.707107
vn 0.000000 0.707107 0.707107
vn 0.000000 0.707107 0.707107
vn 0.000000 0.707107 -0.707107
vn 0.000000 0.707107 -0.707107
vn -0.000000 0.707107 -0.707107
vn -0.000000 0.707107 -0.707107
vn 0.000000 0.707107 -0.707107
vn 0.000000 0.707107 -0.707107
vn 0.000000 0.707107 -0.707107
vn 0.000000 0.707107 -0.707107
vn 0.000000 0.707107 -0.707107
vn 0.000000 0.707107 -0.707107
vn 0.000000 0.707107 -0.707107
vn 0.000000 0.707107 -0.707107
vn -0.000000 0.707107 -0.707107
vn -0.000000 0.707107 -0.707107
vn 0.000000 0.707107 -0.707107
vn 0.000000 0.707107 -0.707107
vn 0.000000 0.707107 -0.707107
vn 0.000000 0.707107 -0.707107
vn -0.000000 0.707107 -0.707107
vn -0.000000 0.707107 -0.707107
vn 0.000000 0.707106 -0.707107
vn 0.000000 0.707106 -0.707107
vn 0.000000 0.707107 -0.707107
vn 0.000000 0.707107 -0.707107
vn 0.000000 -0.707107 -0.707107
vn 0.000000 -0.707107 -0.707107
vn 0.000000 -0.707107 -0.707107
vn 0.000000 -0.707107 -0.707107
vn 0.000000 -0.707107 -0.707107
vn 0.000000 -0.707107 -0.707107
vn 0.000000 -0.707107 -0.707107
vn 0.000000 -0.707107 -0.707107
vn 0.000000 -0.707107 -0.707107
vn 0.000000 -0.707107 -0.707107
vn 0.000000 -0.707107 -0.707107
vn 0.000000 -0.707107 -0.707107
vn 0.000000 -0.707107 -0.707107
vn 0.000000 -0.707107 -0.707107
vn 0.000000 -0.707107 -0.707107
vn 0.000000 -0.707107 -0.707107
vn 0.000000 -0.707107 -0.707107
vn 0.000000 -0.707107 -0.707107
vn 0.000000 -0.707107 -0.707107
vn 0.000000 -0.707107 -0.707107
vn 0.000000 -0.707107 -0.707107
vn 0.000000 -0.707107 -0.707107
vn 0.000000 -0.707107 -0.707107
vn 0.000000 -0.707107 -0.707107
vn 1.000000 0.000000 0.000000
vn 1.000000 0.000000 0.000000
vn 1.000000 0.000000 0.000000
vn 1.000000 0.000000 0.000000
vn 1.000000 0.000000 0.000000
vn 1.000000 -0.000000 -0.000000
vn 1.000000 -0.000000 -0.000000
vn 1.000000 -0.000000 -0.000000
vn 1.000000 0.000000 0.000000
vn 1.000000 0.000000 0.000000
vn 1.000000 0.000000 0.000000
vn 1.000000 0.000000 0.000000
vn 1.000000 0.000000 0.000000
vn 1.000000 0.000000 0.000000
vn 1.000000 0.000000 0.000000
vn 1.000000 0.000000 0.000000
vn -1.000000 -0.000000 -0.000000
vn -1.000000 0.000000 0.000000
vn -1.000000 -0.000000 -0.000000
vn -1.000000 -0.000000 -0.000000
vn -1.000000 0.000000 0.000000
vn -1.000000 -0.000000 -0.000000
vn -1.000000 -0.000001 -0.000001
vn -1.000000 -0.000000 -0.000000
vn -1.000000 0.000000 0.000000
vn -1.000000 0.000000 0.000000
vn -1.000000 0.000000 0.000000
vn -1.000000 0.000000 0.000000
vn -1.000000 0.000000 0.000000
vn -1.000000 0.000000 0.000000
vn -1.000000 0.000001 0.000001
vn -1.000000 0.000000 0.000000
vn 0.000000 0.707107 0.707107
vn 0.000000 0.707107 0.707107
vn 0.000000 0.707107 0.707107
vn 0.000000 0.707107 0.707107
vn 0.000000 -0.707107 0.707107
vn 0.000000 -0.707107 0.707107
vn 0.000000 -0.707107 0.707107
vn 0.000000 -0.707107 0.707107
vn 0.000000 -0.707107 -0.707107
vn 0.000000 -0.707107 -0.707107
vn 0.000000 -0.707107 -0.707107
vn 0.000000 -0.707107 -0.707107
vn 0.000000 0.707107 -0.707107
vn 0.000000 0.707107 -0.707107
vn 0.000000 0.707107 -0.707107
vn 0.000000 0.707107 -0.707107
vn 1.000000 0.000000 0.000000
vn 1.000000 0.000000 0.000000
vn 1.000000 0.000000 0.000000
vn 1.000000 0.000000 0.000000
vn 1.000000 -0.000001 -0.000001
vn 1.000000 -0.000001 -0.000001
vn 1.000000 -0.000001 -0.000001
vn 1.000000 -0.000001 -0.000001
vn 1.000000 0.000001 0.000001
vn 1.000000 0.000001 0.000001
vn 1.000000 0.000001 0.000001
vn 1.000000 0.000001 0.000001
vn 1.000000 0.000001 0.000001
vn 1.000000 0.000001 0.000001
vn 1.000000 0.000001 0.000001
vn 1.000000 0.000001 0.000001
vn 1.000000 -0.000001 -0.000001
vn 1.000000 -0.000001 -0.000001
vn 1.000000 -0.000001 -0.000001
vn 1.000000 -0.000001 -0.000001
vn 1.000000 0.000000 0.000000
vn 1.000000 0.000000 0.000000
vn 1.000000 0.000000 0.000000
vn 1.000000 0.000000 0.000000
vn 1.000000 0.000000 0.000000
vn 1.000000 0.000000 0.000000
vn 1.000000 0.000000 0.000000
vn 1.000000 0.000000 0.000000
vn 1.000000 0.000001 0.000001
vn 1.000000 0.000001 0.000001
vn 1.000000 0.000001 0.000001
vn 1.000000 0.000001 0.000001
vn 1.000000 -0.000001 -0.000001
vn 1.000000 -0.000001 -0.000001
vn 1.000000 -0.000001 -0.000001
vn 1.000000 -0.000001 -0.000001
vn 1.000000 -0.000001 -0.000001
vn 1.000000 -0.000001 -0.000001
vn 1.000000 -0.000001 -0.000001
vn 1.000000 -0.000001 -0.000001
vn 1.000000 0.000001 0.000001
vn 1.000000 0.000001 0.000001
vn 1.000000 0.000001 0.000001
vn 1.000000 0.000001 0.000001
vn 1.000000 0.000000 0.000000
vn 1.000000 0.000000 0.000000
vn 1.000000 0.000000 0.000000
vn 1.000000 0.000000 0.000000
vn -1.000000 -0.000000 -0.000000
vn -1.000000 -0.000000 -0.000000
vn -1.000000 -0.000000 -0.000000
vn -1.000000 -0.000000 -0.000000
vn -1.000000 0.000000 0.000000
vn -1.000000 0.000000 0.000000
vn -1.000000 0.000000 0.000000
vn -1.000000 0.000000 0.000000
vn -1.000000 0.000000 0.000000
vn -1.000000 0.000000 0.000000
vn -1.000000 0.000000 0.000000
vn -1.000000 0.000000 0.000000
vn -1.000000 0.000000 0.000000
vn -1.000000 0.000000 0.000000
vn -1.000000 0.000000 0.000000
vn -1.000000 0.000000 0.000000
vn -1.000000 0.000000 0.000000
vn -1.000000 0.000000 0.000000
vn -1.000000 0.000000 0.000000
vn -1.000000 0.000000 0.000000
vn -1.000000 -0.000001 -0.000001
vn -1.000000 -0.000001 -0.000001
vn -1.000000 -0.000001 -0.000001
vn -1.000000 -0.000001 -0.000001
vn -1.000000 0.000001 0.000001
vn -1.000000 0.000001 0.000001
vn -1.000000 0.000001 0.000001
vn -1.000000 0.000001 0.000001
vn -1.000000 0.000001 0.000001
vn -1.000000 0.000001 0.000001
vn -1.000000 0.000001 0.000001
vn -1.000000 0.000001 0.000001
vn -1.000000 0.000001 0.000001
vn -1.000000 0.000001 0.000001
vn -1.000000 0.000001 0.000001
vn -1.000000 0.000001 0.000001
vn -1.000000 -0.000001 -0.000001
vn -1.000000 -0.000001 -0.000001
vn -1.000000 -0.000001 -0.000001
vn -1.000000 -0.000001 -0.000001
vn -1.000000 0.000000 0.000000
vn -1.000000 0.000000 0.000000
vn -1.000000 0.000000 0.000000
vn -1.000000 0.000000 0.000000
vn -1.000000 0.000001 0.000001
vn -1.000000 0.000001 0.000001
vn -1.000000 0.000001 0.000001
vn -1.000000 0.000001 0.000001
vn -1.000000 -0.000001 -0.000001
vn -1.000000 -0.000001 -0.000001
vn -1.000000 -0.000001 -0.000001
vn -1.000000 -0.000001 -0.000001
vn -1.000000 -0.000001 -0.000001
vn -1.000000 -0.000001 -0.000001
vn -1.000000 -0.000001 -0.000001
vn -1.000000 -0.000001 -0.000001
vn -1.000000 -0.000001 -0.000001
vn -1.000000 -0.000001 -0.000001
vn -1.000000 -0.000001 -0.000001
vn -1.000000 -0.000001 -0.000001
vn -1.000000 0.000001 0.000001
vn -1.000000 0.000001 0.000001
vn -1.000000 0.000001 0.000001
vn -1.000000 0.000001 0.000001
vn 1.000000 0.000000 0.000000
vn 1.000000 0.000000 0.000000
vn 1.000000 0.000000 0.000000
vn 1.000000 0.000000 0.000000
vn 1.000000 0.000000 0.000000
vn 1.000000 0.000000 0.000000
vn 1.000000 0.000000 0.000000
vn 1.000000 0.000000 0.000000
vn 1.000000 0.000000 0.000000
vn 1.000000 0.000000 0.000000
vn 1.000000 0.000000 0.000000
vn 1.000000 0.000000 0.000000
vn 1.000000 0.000000 0.000000
vn 1.000000 0.000000 0.000000
vn 1.000000 0.000000 0.000000
vn 1.000000 0.000000 0.000000
s 1
g pCube1
usemtl initialShadingGroup
f 33/1/1 34/77/2 35/78/3 36/5/4
s 2
f 1/2/5 2/3/6 4/7/7 3/6/8
s 3
f 61/80/9 62/4/10 63/8/11 64/79/12
s 1
f 36/5/4 35/78/3 37/81/13 38/9/14
s 2
f 3/6/8 4/7/7 6/11/15 5/10/16
s 3
f 64/79/12 63/8/11 65/12/17 66/82/18
s 1
f 38/9/14 37/81/13 39/83/19 40/13/20
s 2
f 5/10/16 6/11/15 8/15/21 7/14/22
s 3
f 66/82/18 65/12/17 67/16/23 68/84/24
s 4
f 40/13/25 39/83/26 41/85/27 42/17/28
s 5
f 7/14/29 8/15/30 10/19/31 9/18/32
s 6
f 68/84/33 67/16/34 69/20/35 70/86/36
s 4
f 42/17/28 41/85/27 43/87/37 44/21/38
s 5
f 9/18/32 10/19/31 12/23/39 11/22/40
s 6
f 70/86/36 69/20/35 71/24/41 72/88/42
s 4
f 44/21/38 43/87/37 45/89/43 46/25/44
s 5
f 11/22/40 12/23/39 14/27/45 13/26/46
s 6
f 72/88/42 71/24/41 73/28/47 74/90/48
s 7
f 46/25/49 45/89/50 47/91/51 48/29/52
s 8
f 13/26/53 14/27/54 16/31/55 15/30/56
s 9
f 74/90/57 73/28/58 75/32/59 76/92/60
s 7
f 48/29/52 47/91/51 49/93/61 50/33/62
s 8
f 15/30/56 16/31/55 18/35/63 17/34/64
s 9
f 76/92/60 75/32/59 77/36/65 78/94/66
s 7
f 50/33/62 49/93/61 51/95/67 52/37/68
s 8
f 17/34/64 18/35/63 20/39/69 19/38/70
s 9
f 78/94/66 77/36/65 79/40/71 80/96/72
s 10
f 52/37/73 51/95/74 53/97/75 54/41/76
s 11
f 19/38/77 20/39/78 22/43/79 21/42/80
s 12
f 80/96/81 79/40/82 81/44/83 82/98/84
s 10
f 54/41/76 53/97/75 55/99/85 56/45/86
s 11
f 21/42/80 22/43/79 24/47/87 23/46/88
s 12
f 82/98/84 81/44/83 83/48/89 84/100/90
s 10
f 56/45/86 55/99/85 34/101/91 33/49/92
s 11
f 23/46/88 24/47/87 2/51/93 1/50/94
s 12
f 84/100/90 83/48/89 62/52/95 61/102/96
s 13
f 81/54/97 79/53/98 77/56/99 85/103/100
f 83/55/101 81/54/97 85/103/100 86/104/102
f 62/4/103 83/55/101 86/104/102 63/8/104
f 85/103/100 77/56/99 75/59/105 87/105/106
f 63/8/104 86/104/102 88/106/107 65/12/108
f 87/105/106 75/59/105 73/62/109 71/63/110
f 88/106/107 87/105/106 71/63/110 69/64/111
f 65/12/108 88/106/107 69/64/111 67/16/112
s 14
f 52/65/113 54/66/114 57/108/115 50/68/116
f 54/66/114 56/67/117 58/107/118 57/108/115
f 56/67/117 33/1/119 36/5/120 58/107/118
f 50/68/116 57/108/115 59/109/121 48/71/122
f 58/107/118 36/5/120 38/9/123 60/110/124
f 48/71/122 59/109/121 44/75/125 46/74/126
f 59/109/121 60/110/124 42/76/127 44/75/125
f 60/110/124 38/9/123 40/13/128 42/76/127
s off
f 26/58/129 25/57/130 29/69/131 30/70/132
f 25/57/133 27/60/134 31/72/135 29/69/136
f 27/60/137 28/61/138 32/73/139 31/72/140
f 28/61/141 26/58/142 30/70/143 32/73/144
f 1/2/145 3/6/146 35/78/147 34/77/148
f 3/7/149 5/3/150 37/80/151 35/79/152
f 5/6/153 7/10/154 39/81/155 37/78/156
f 7/11/157 9/7/158 41/79/159 39/82/160
f 9/10/161 11/14/162 43/83/163 41/81/164
f 11/15/165 13/11/166 45/82/167 43/84/168
f 13/14/169 15/18/170 47/85/171 45/83/172
f 15/19/173 17/15/174 49/84/175 47/86/176
f 17/18/177 19/22/178 51/87/179 49/85/180
f 19/23/181 21/19/182 53/86/183 51/88/184
f 21/22/185 23/26/186 55/89/187 53/87/188
f 23/27/189 1/23/190 34/88/191 55/90/192
f 30/26/193 29/30/194 57/91/195 58/89/196
f 29/31/197 31/27/198 59/90/199 57/92/200
f 32/30/201 30/34/202 58/93/203 60/91/204
f 31/35/205 32/31/206 60/92/207 59/94/208
f 4/34/209 2/38/210 61/95/211 64/93/212
f 6/39/213 4/35/214 64/94/215 66/96/216
f 8/38/217 6/42/218 66/97/219 68/95/220
f 10/43/221 8/39/222 68/96/223 70/98/224
f 12/42/225 10/46/226 70/99/227 72/97/228
f 14/47/229 12/43/230 72/98/231 74/100/232
f 16/46/233 14/50/234 74/101/235 76/99/236
f 18/51/237 16/47/238 76/100/239 78/102/240
f 20/57/241 18/58/242 78/104/243 80/103/244
f 22/60/245 20/57/246 80/103/247 82/105/248
f 24/58/249 22/61/250 82/106/251 84/104/252
f 2/61/253 24/60/254 84/105/255 61/106/256
f 25/70/257 26/69/258 86/108/259 85/107/260
f 27/69/261 25/72/262 85/109/263 87/108/264
f 26/73/265 28/70/266 88/107/267 86/110/268
f 28/72/269 27/73/270 87/110/271 88/109/272
