# This file uses centimeters as units for non-parametric coordinates.

mtllib WingLeft.mtl
g default
v -0.006909 -0.010208 0.043830
v 0.090163 -0.295521 0.176477
v 0.187238 -0.099184 -0.191336
v 0.942903 -0.396812 -0.688033
v 0.711961 -0.457561 -0.356093
v 0.407920 -0.534351 -0.001395
v 0.222177 -0.066606 -0.181320
v 0.117250 -0.263318 0.186176
v 0.996846 -0.362886 -0.655565
v 0.744174 -0.426042 -0.337078
v 0.440101 -0.502062 0.014343
vn -0.586783 -0.619382 -0.521585
vn -0.586783 -0.619382 -0.521585
vn -0.586783 -0.619382 -0.521585
vn -0.760211 -0.468107 -0.450506
vn -0.760211 -0.468107 -0.450506
vn -0.760211 -0.468107 -0.450506
vn 0.612270 0.558072 0.560072
vn 0.612270 0.558072 0.560072
vn 0.612270 0.558072 0.560072
vn 0.612270 0.558072 0.560072
vn 0.574183 0.586082 0.571683
vn 0.574183 0.586082 0.571683
vn 0.574183 0.586082 0.571683
vn -0.178903 0.688310 -0.703010
vn -0.178903 0.688310 -0.703010
vn -0.178903 0.688310 -0.703010
vn -0.178903 0.688310 -0.703010
vn 0.569875 -0.753568 0.327686
vn 0.569875 -0.753568 0.327686
vn 0.569875 -0.753568 0.327686
vn 0.569875 -0.753568 0.327686
vn 0.130803 -0.465512 0.875322
vn 0.130803 -0.465512 0.875322
vn 0.130803 -0.465512 0.875322
vn 0.130803 -0.465512 0.875322
vn 0.505202 -0.835403 0.216501
vn 0.505202 -0.835403 0.216501
vn 0.505202 -0.835403 0.216501
vn 0.505202 -0.835403 0.216501
vn -0.619518 -0.556016 -0.554116
vn -0.619518 -0.556016 -0.554116
vn -0.619518 -0.556016 -0.554116
vn -0.619518 -0.556016 -0.554116
vn 0.634679 0.591180 0.497683
vn 0.634679 0.591180 0.497683
vn 0.634679 0.591180 0.497683
vn -0.438805 0.658507 -0.611407
vn -0.438805 0.658507 -0.611407
vn -0.438805 0.658507 -0.611407
vn -0.533019 0.200807 0.821929
vn -0.533019 0.200807 0.821929
vn -0.533019 0.200807 0.821929
s off
g bird:Mesh
usemtl bird:Material_002
f 3//1 4//2 5//3
f 3//4 2//5 1//6
f 7//7 8//8 11//9 10//10
f 7//11 10//12 9//13
f 4//14 3//15 7//16 9//17
f 6//18 5//19 10//20 11//21
f 2//22 6//23 11//24 8//25
f 5//26 4//27 9//28 10//29
f 3//30 5//31 6//32 2//33
f 7//34 1//35 8//36
f 3//37 1//38 7//39
f 1//40 2//41 8//42
